<svg xmlns="http://www.w3.org/2000/svg" viewBox="0 0 48 48">
  <title>connection-arw-l</title>
  <g id="connection-arw-l">
    <g>
      <path d="M11,13a5,5,0,1,1,5-5A5.006,5.006,0,0,1,11,13Zm0-8a3,3,0,1,0,3,3A3,3,0,0,0,11,5Z"/>
      <g>
        <rect x="10" y="13" width="2" height="2"/>
        <path d="M21.928,41.971a12.708,12.708,0,0,1-4.189-1.011l.791-1.836a10.724,10.724,0,0,0,3.533.851Zm-7.8-3.356a12.827,12.827,0,0,1-2.634-3.409l1.766-.939a10.817,10.817,0,0,0,2.224,2.878Zm-3.984-7.5A13.032,13.032,0,0,1,10,29.2V26.978h2V29.2a10.874,10.874,0,0,0,.119,1.61ZM12,22.984H10V18.992h2Z"/>
        <rect x="26" y="40" width="2" height="2"/>
      </g>
      <path d="M22,48a1,1,0,0,1-.648-1.763L27.525,41l-6.173-5.237a1,1,0,1,1,1.295-1.525l7.071,6a1,1,0,0,1,0,1.525l-7.071,6A1,1,0,0,1,22,48Z"/>
      <path d="M37.071,46a5,5,0,1,1,5-5A5.006,5.006,0,0,1,37.071,46Zm0-8a3,3,0,1,0,3,3A3,3,0,0,0,37.071,38Z"/>
      <path d="M37.071,37a1,1,0,0,1-1-1V19.8A10.808,10.808,0,0,0,25.275,9h-5.2a1,1,0,0,1,0-2h5.2a12.81,12.81,0,0,1,12.8,12.8V36A1,1,0,0,1,37.071,37Z"/>
      <path d="M26.071,15a1,1,0,0,1-.647-.237l-7.071-6a1,1,0,0,1,0-1.525l7.071-6a1,1,0,1,1,1.295,1.525L20.546,8l6.173,5.237A1,1,0,0,1,26.071,15Z"/>
    </g>
  </g>
</svg>
