<svg xmlns="http://www.w3.org/2000/svg" viewBox="0 0 48 48">
  <title>pluse-arrow</title>
  <g id="pluse-arrow">
    <path d="M24,45a1,1,0,0,1-1-1V2a1,1,0,0,1,2,0V44A1,1,0,0,1,24,45Z"/>
    <path d="M24,47a1,1,0,0,1-.707-.293l-7-7a1,1,0,0,1,1.414-1.414L24,44.586l6.293-6.293a1,1,0,0,1,1.414,1.414l-7,7A1,1,0,0,1,24,47Z"/>
    <path d="M31,10a1,1,0,0,1-.707-.293L24,3.414,17.707,9.707a1,1,0,0,1-1.414-1.414l7-7a1,1,0,0,1,1.414,0l7,7A1,1,0,0,1,31,10Z"/>
    <path d="M46,25H4a1,1,0,0,1,0-2H46a1,1,0,0,1,0,2Z"/>
    <path d="M9,32a1,1,0,0,1-.707-.293l-7-7a1,1,0,0,1,0-1.414l7-7a1,1,0,0,1,1.414,1.414L3.414,24l6.293,6.293A1,1,0,0,1,9,32Z"/>
    <path d="M39,32a1,1,0,0,1-.707-1.707L44.586,24l-6.293-6.293a1,1,0,0,1,1.414-1.414l7,7a1,1,0,0,1,0,1.414l-7,7A1,1,0,0,1,39,32Z"/>
  </g>
</svg>
