<svg xmlns="http://www.w3.org/2000/svg" viewBox="0 0 48 48">
  <title>right-arrows</title>
  <g id="right-arrows">
    <g>
      <path d="M3,9H41.586l-3.293,3.293a1,1,0,1,0,1.414,1.414l5-5a1,1,0,0,0,0-1.414l-5-5a1,1,0,0,0-1.414,1.414L41.586,7H3A1,1,0,0,0,3,9Z"/>
      <path d="M39.707,18.293a1,1,0,0,0-1.414,1.414L41.586,23H3a1,1,0,0,0,0,2H41.586l-3.293,3.293a1,1,0,1,0,1.414,1.414l5-5a1,1,0,0,0,0-1.414Z"/>
      <path d="M39.707,34.293a1,1,0,0,0-1.414,1.414L41.586,39H3a1,1,0,0,0,0,2H41.586l-3.293,3.293a1,1,0,1,0,1.414,1.414l5-5a1,1,0,0,0,0-1.414Z"/>
    </g>
  </g>
</svg>
