<svg xmlns="http://www.w3.org/2000/svg" viewBox="0 0 48 48">
  <title>node-rotate</title>
  <g id="left-move-2">
    <g>
      <path d="M3,23.25a11.012,11.012,0,0,1,11-11H34.586l-7.168,7.167a1,1,0,1,0,1.414,1.414l8.875-8.875a1,1,0,0,0,0-1.414L28.832,1.669a1,1,0,0,0-1.414,1.414l7.168,7.167H14A13,13,0,0,0,6.418,33.812a1,1,0,0,0,1.168-1.624A11.034,11.034,0,0,1,3,23.25Z"/>
      <path d="M40.983,13.158a1,1,0,0,0-1.076,1.687A11,11,0,0,1,34,35.125H13.414l7.168-7.167a1,1,0,0,0-1.414-1.414l-8.875,8.875a1,1,0,0,0,0,1.414l8.875,8.875a1,1,0,0,0,1.414-1.414l-7.168-7.167H34a13,13,0,0,0,6.983-23.967Z"/>
    </g>
  </g>
</svg>
