<svg xmlns="http://www.w3.org/2000/svg" viewBox="0 0 48 48">
  <title>double-arrow</title>
  <g id="double-arrow">
    <path d="M6.526,24.053H6.472A1,1,0,0,1,5.526,23a18.513,18.513,0,0,1,35.386-6.568,1,1,0,0,1-1.824.818A16.513,16.513,0,0,0,7.524,23.106,1,1,0,0,1,6.526,24.053Z"/>
    <path d="M7,25a1,1,0,0,1-.694-.28l-5-4.819a1,1,0,1,1,1.389-1.439l4.329,4.173,4.668-4.2a1,1,0,0,1,1.338,1.486l-5.36,4.819A1,1,0,0,1,7,25Z"/>
    <path d="M24,43A18.558,18.558,0,0,1,7.088,32.046a1,1,0,0,1,1.824-.818,16.513,16.513,0,0,0,31.564-5.858,1,1,0,1,1,2,.107A18.508,18.508,0,0,1,24,43Z"/>
    <path d="M35.64,30.3a1,1,0,0,1-.669-1.743l5.36-4.819a1,1,0,0,1,1.363.023l5,4.819a1,1,0,1,1-1.389,1.439l-4.329-4.173-4.668,4.2A1,1,0,0,1,35.64,30.3Z"/>
  </g>
</svg>
