<svg xmlns="http://www.w3.org/2000/svg" viewBox="0 0 48 48">
  <title>node-v-rotate</title>
  <g id="left-move-2">
    <g>
      <path d="M44.6,27.106l-7.167,7.167V13.688A13,13,0,0,0,13.877,6.106,1,1,0,1,0,15.5,7.273a11,11,0,0,1,19.938,6.415V34.274L28.27,27.106a1,1,0,0,0-1.414,1.414L35.73,37.4a1,1,0,0,0,1.414,0l8.874-8.875A1,1,0,0,0,44.6,27.106Z"/>
      <path d="M34.225,39.29a1,1,0,0,0-1.381.305,11,11,0,0,1-20.281-5.907V13.1L19.73,20.27a1,1,0,0,0,1.414-1.414L12.27,9.981a1.029,1.029,0,0,0-1.414,0L1.981,18.855A1,1,0,0,0,3.4,20.27L10.563,13.1V33.688a13,13,0,0,0,23.967,6.983A1,1,0,0,0,34.225,39.29Z"/>
    </g>
  </g>
</svg>
