<svg xmlns="http://www.w3.org/2000/svg" viewBox="0 0 48 48">
  <title>round-extand-arrow</title>
  <g id="round-extand">
    <path d="M32.646,16.354a1,1,0,0,1-.707-1.707L44.293,2.293a1,1,0,0,1,1.414,1.414L33.354,16.061A1,1,0,0,1,32.646,16.354Z"/>
    <path d="M3.494,45.506A1,1,0,0,1,2.787,43.8L14.649,31.937a1,1,0,0,1,1.414,1.414L4.2,45.213A1,1,0,0,1,3.494,45.506Z"/>
    <path d="M45,12a1,1,0,0,1-1-1V4H37a1,1,0,0,1,0-2h8a1,1,0,0,1,1,1v8A1,1,0,0,1,45,12Z"/>
    <path d="M11,46H3a1,1,0,0,1-1-1V37a1,1,0,0,1,2,0v7h7a1,1,0,0,1,0,2Z"/>
    <path d="M45,46a1,1,0,0,1-.707-.293l-12.2-12.2A1,1,0,0,1,33.512,32.1l12.2,12.2A1,1,0,0,1,45,46Z"/>
    <path d="M15.354,16.354a1,1,0,0,1-.707-.293L2.787,4.2A1,1,0,0,1,4.2,2.787l11.86,11.86a1,1,0,0,1-.707,1.707Z"/>
    <path d="M45,46H37a1,1,0,0,1,0-2h7V37a1,1,0,0,1,2,0v8A1,1,0,0,1,45,46Z"/>
    <path d="M3,12a1,1,0,0,1-1-1V3A1,1,0,0,1,3,2h8a1,1,0,0,1,0,2H4v7A1,1,0,0,1,3,12Z"/>
    <path d="M24,30a6,6,0,1,1,6-6A6.007,6.007,0,0,1,24,30Zm0-10a4,4,0,1,0,4,4A4,4,0,0,0,24,20Z"/>
  </g>
</svg>
