<svg xmlns="http://www.w3.org/2000/svg" viewBox="0 0 48 48">
  <title>right-blend-arrow_1</title>
  <g id="two-side-bend-arw">
    <path d="M9,20a1,1,0,0,1-.707-.293l-7-7a1,1,0,0,1,0-1.414l7-7A1,1,0,0,1,9.707,5.707L3.414,12l6.293,6.293A1,1,0,0,1,9,20Z"/>
    <path d="M24,47a1,1,0,0,1-1-1V24A11.012,11.012,0,0,0,12,13H3a1,1,0,0,1,0-2h9A13.015,13.015,0,0,1,25,24V46A1,1,0,0,1,24,47Z"/>
    <path d="M38.5,20.5a1,1,0,0,1-.707-1.707L44.586,12,37.793,5.207a1,1,0,0,1,1.414-1.414l7.5,7.5a1,1,0,0,1,0,1.414l-7.5,7.5A1,1,0,0,1,38.5,20.5Z"/>
    <path d="M24,47a1,1,0,0,1-1-1V24A13.015,13.015,0,0,1,36,11h9a1,1,0,0,1,0,2H36A11.012,11.012,0,0,0,25,24V46A1,1,0,0,1,24,47Z"/>
  </g>
</svg>
