<svg xmlns="http://www.w3.org/2000/svg" viewBox="0 0 48 48">
  <title>arw-rds-down</title>
  <g id="left-move-2">
    <g>
      <path d="M44.732,32.813a1,1,0,0,0-1.334.471q-.208.436-.437.861a1,1,0,0,0,1.764.944q.249-.467.478-.942A1,1,0,0,0,44.732,32.813Z"/>
      <path d="M23.105,45.481a1.031,1.031,0,0,0-1.041.957,1,1,0,0,0,.957,1.042q.486.021.979.021h.071a.97.97,0,0,0,.964-1A1.03,1.03,0,0,0,24,45.5C23.7,45.5,23.4,45.494,23.105,45.481Z"/>
      <path d="M28.851,44.951c-.313.072-.628.137-.945.2a1,1,0,1,0,.361,1.967q.52-.1,1.031-.213a1,1,0,1,0-.447-1.949Z"/>
      <path d="M33.384,43.35q-.434.209-.876.4a1,1,0,1,0,.793,1.836q.483-.209.956-.438a1,1,0,1,0-.873-1.8Z"/>
      <path d="M3.055,28.874q-.108-.469-.2-.946a1,1,0,1,0-1.967.364q.1.519.214,1.03a1,1,0,0,0,.974.776,1.028,1.028,0,0,0,.226-.025A1,1,0,0,0,3.055,28.874Z"/>
      <path d="M46.5,22.976A1.02,1.02,0,0,0,45.5,24q0,.461-.02.918a1,1,0,0,0,.956,1.042h.044a1,1,0,0,0,1-.957q.022-.5.021-1v-.048A.98.98,0,0,0,46.5,22.976Z"/>
      <path d="M14.224,4.729a1,1,0,0,0,.435-.1q.432-.209.876-.4a1,1,0,0,0-.789-1.838q-.485.208-.958.437a1,1,0,0,0,.437,1.9Z"/>
      <path d="M6.4,10.977a1,1,0,0,0,.782-.376q.3-.377.619-.74A1,1,0,0,0,6.3,8.544q-.347.4-.676.81a1,1,0,0,0,.78,1.624Z"/>
      <path d="M3.287,15.142a1,1,0,0,0,1.335-.467q.209-.437.438-.862A1,1,0,0,0,3.3,12.867q-.249.464-.479.94A1,1,0,0,0,3.287,15.142Z"/>
      <path d="M5.036,37.881q.312.428.645.839a1,1,0,1,0,1.557-1.255q-.3-.374-.585-.762a1,1,0,0,0-1.616,1.178Z"/>
      <path d="M1.836,19.971a1,1,0,0,0,1.2-.752q.108-.472.235-.937a1,1,0,1,0-1.928-.529q-.139.506-.257,1.021A1,1,0,0,0,1.836,19.971Z"/>
      <path d="M18.347,44.749a1,1,0,1,0-.521,1.931q.508.138,1.022.253a1,1,0,1,0,.438-1.951C18.97,44.911,18.658,44.833,18.347,44.749Z"/>
      <path d="M2.86,34.279a1,1,0,0,0,1.8-.875q-.211-.432-.4-.875a1,1,0,0,0-1.836.8C2.561,33.646,2.708,33.965,2.86,34.279Z"/>
      <path d="M44.957,19.173c.072.312.136.626.194.944a1,1,0,0,0,.982.821,1.024,1.024,0,0,0,.18-.016,1,1,0,0,0,.8-1.163q-.094-.521-.212-1.034a1,1,0,1,0-1.949.448Z"/>
      <path d="M33.3,4.611q.435.209.859.437a1,1,0,1,0,.949-1.76q-.464-.25-.941-.48a1,1,0,0,0-.867,1.8Z"/>
      <path d="M38.121,7.787a1,1,0,1,0,1.318-1.5c-.265-.232-.536-.458-.812-.677A1,1,0,1,0,37.382,7.17Q37.76,7.471,38.121,7.787Z"/>
      <path d="M9.411,42.425a1,1,0,1,0,1.242-1.567q-.378-.3-.743-.617A1,1,0,0,0,8.6,41.751Q9,42.1,9.411,42.425Z"/>
      <path d="M43.761,15.512a1,1,0,0,0,1.838-.79q-.208-.484-.438-.958a1,1,0,1,0-1.8.873Q43.571,15.07,43.761,15.512Z"/>
      <path d="M40.98,39.762a1,1,0,0,0,.753-.342c.232-.266.457-.537.677-.813a1,1,0,0,0-1.568-1.242q-.3.376-.614.74a1,1,0,0,0,.753,1.658Z"/>
      <path d="M36.466,42.759a1,1,0,0,0,1.4.219q.428-.312.839-.643a1,1,0,0,0-1.254-1.559q-.374.3-.763.585A1,1,0,0,0,36.466,42.759Z"/>
      <path d="M9.965,7.414a.992.992,0,0,0,.623-.219q.378-.3.768-.586a1,1,0,1,0-1.18-1.615q-.425.311-.836.639a1,1,0,0,0,.625,1.781Z"/>
      <path d="M1.5,25.048A1.042,1.042,0,0,0,2.5,24c0-.323.008-.645.021-.965a1,1,0,0,0-.955-1.043,1.01,1.01,0,0,0-1.043.955Q.5,23.471.5,24v.1A.96.96,0,0,0,1.5,25.048Z"/>
      <path d="M24,2.5c.315,0,.629.007.942.021h.044a1,1,0,0,0,.042-2Q24.517.5,24,.5h-.024a.99.99,0,0,0-.988,1A1.011,1.011,0,0,0,24,2.5Z"/>
      <path d="M18.972,3.064a1,1,0,0,0,.224-.025c.313-.072.628-.136.944-.193A1,1,0,1,0,19.782.878q-.519.094-1.032.211a1,1,0,0,0,.222,1.975Z"/>
      <path d="M13.877,42.973a1,1,0,0,0-.945,1.763q.464.249.943.478a1,1,0,1,0,.861-1.8Q14.3,43.2,13.877,42.973Z"/>
      <path d="M45.71,30.937a1,1,0,0,0,.964-.738q.138-.507.254-1.021a1,1,0,0,0-1.951-.44q-.107.473-.232.938a1,1,0,0,0,.966,1.263Z"/>
      <path d="M28.761,3.029q.47.106.935.233a1,1,0,1,0,.529-1.929q-.508-.139-1.024-.256a1,1,0,1,0-.439,1.951Z"/>
      <path d="M41.376,11.335a1,1,0,0,0,1.616-1.178q-.312-.426-.641-.837a1,1,0,1,0-1.561,1.25Q41.091,10.946,41.376,11.335Z"/>
      <path d="M11.979,26.394,23.292,37.706a1,1,0,0,0,1.416,0L36.021,26.394a1,1,0,0,0-1.414-1.414L25,34.586V8a1,1,0,0,0-2,0V34.586l-9.606-9.606a1,1,0,0,0-1.414,1.414Z"/>
    </g>
  </g>
</svg>
