<svg xmlns="http://www.w3.org/2000/svg" viewBox="0 0 48 48">
  <title>sing-sang-arw</title>
  <g id="sing-sang-arw">
    <path d="M12,37.25c-.219,0-.438-.007-.658-.019A12,12,0,0,1,8.15,13.882,11.7,11.7,0,0,1,22.1,19.645L27.662,29.9a9.83,9.83,0,0,0,11.547,4.822,10,10,0,0,0,4.626-15.692,10.005,10.005,0,0,0-14.906-.853,1,1,0,0,1-1.414-1.414A12,12,0,1,1,39.85,36.618,11.7,11.7,0,0,1,25.9,30.855L20.338,20.6A9.829,9.829,0,0,0,8.791,15.776,10,10,0,0,0,4.165,31.469a10.005,10.005,0,0,0,14.906.853,1,1,0,0,1,1.414,1.414A12.02,12.02,0,0,1,12,37.25Z"/>
    <path d="M34,21a1.029,1.029,0,0,1-.275-.038l-7-2a1,1,0,0,1-.687-1.236l2-7a1,1,0,1,1,1.924.549l-1.726,6.039,6.038,1.725A1,1,0,0,1,34,21Z"/>
  </g>
</svg>
