<svg xmlns="http://www.w3.org/2000/svg" viewBox="0 0 48 48">
  <title>verticle-hiden-arw</title>
  <g id="verticle-hidden-arw">
    <path d="M25.468,11.234a.993.993,0,0,1-.7-.282l-6.75-6.538-6.3,6.516a1,1,0,1,1-1.437-1.391l7-7.234a1,1,0,0,1,.7-.3H18a1,1,0,0,1,.7.282l7.468,7.234a1,1,0,0,1-.7,1.718Z"/>
    <path d="M32,45a1,1,0,0,1-.684-.271l-7.468-7a1,1,0,0,1,1.367-1.459l6.762,6.338,6.315-6.315a1,1,0,0,1,1.414,1.414l-7,7A1,1,0,0,1,32,45Z"/>
    <g>
      <path d="M18,7a1,1,0,0,1-1-1V4a1,1,0,0,1,2,0V6A1,1,0,0,1,18,7Z"/>
      <path d="M18,38.111a1,1,0,0,1-1-1v-3.89a1,1,0,0,1,2,0v3.89A1,1,0,0,1,18,38.111Zm0-7.778a1,1,0,0,1-1-1V25.444a1,1,0,0,1,2,0v3.889A1,1,0,0,1,18,30.333Zm0-7.777a1,1,0,0,1-1-1v-3.89a1,1,0,1,1,2,0v3.89A1,1,0,0,1,18,22.556Zm0-7.778a1,1,0,0,1-1-1V9.889a1,1,0,0,1,2,0v3.889A1,1,0,0,1,18,14.777Z"/>
      <path d="M18,44a1,1,0,0,1-1-1V41a1,1,0,0,1,2,0v2A1,1,0,0,1,18,44Z"/>
    </g>
    <g>
      <path d="M32,9a1,1,0,0,1-1-1V6a1,1,0,0,1,2,0V8A1,1,0,0,1,32,9Z"/>
      <path d="M32,38.334a1,1,0,0,1-1-1V33.667a1,1,0,0,1,2,0v3.667A1,1,0,0,1,32,38.334ZM32,31a1,1,0,0,1-1-1V26.334a1,1,0,0,1,2,0V30A1,1,0,0,1,32,31Zm0-7.333a1,1,0,0,1-1-1V19a1,1,0,0,1,2,0v3.667A1,1,0,0,1,32,23.667Zm0-7.333a1,1,0,0,1-1-1V11.667a1,1,0,0,1,2,0v3.667A1,1,0,0,1,32,16.334Z"/>
      <path d="M32,44a1,1,0,0,1-1-1V41a1,1,0,0,1,2,0v2A1,1,0,0,1,32,44Z"/>
    </g>
  </g>
</svg>
