<svg xmlns="http://www.w3.org/2000/svg" viewBox="0 0 48 48">
  <title>radio microphone1</title>
  <g id="microphone-2">
    <g>
      <path d="M24,36.245A10.9,10.9,0,0,0,35,25.469V10.776a11,11,0,0,0-22,0V25.469A10.9,10.9,0,0,0,24,36.245ZM24,1.959a8.92,8.92,0,0,1,9,8.817v5.877H15V10.776A8.92,8.92,0,0,1,24,1.959ZM15,18.612H33v6.857a9,9,0,0,1-18,0Z" style="fill: #1f1f1f"/>
      <path d="M38,17.633a.99.99,0,0,0-1,.979v6.857a13,13,0,0,1-26,0V18.612a1,1,0,0,0-2,0v6.857A14.833,14.833,0,0,0,23,40.114v5.927H21A.98.98,0,1,0,21,48h6a.98.98,0,1,0,0-1.959H25V40.114A14.833,14.833,0,0,0,39,25.469V18.612A.99.99,0,0,0,38,17.633Z" style="fill: #1f1f1f"/>
    </g>
  </g>
</svg>
