<?xml version="1.0" encoding="utf-8"?>
<!-- Generator: Adobe Illustrator 19.1.0, SVG Export Plug-In . SVG Version: 6.00 Build 0)  -->
<svg version="1.1" id="Layer_1" xmlns="http://www.w3.org/2000/svg" xmlns:xlink="http://www.w3.org/1999/xlink" x="0px" y="0px"
	 viewBox="0 0 512 512" enable-background="new 0 0 512 512" xml:space="preserve">
<path d="M255,72.8C154.6,72.8,72.8,154.6,72.8,255S154.6,437.2,255,437.2S437.2,355.5,437.2,255S355.4,72.8,255,72.8z M255,381
	c-23.9,0-46.8-6.7-67-19.4L361.7,188c12.7,20.1,19.4,43,19.4,67C381,324.5,324.5,381,255,381z M255,129c23.9,0,46.8,6.7,67,19.4
	L148.3,322c-12.7-20.1-19.4-43-19.4-67C129,185.5,185.5,129,255,129z"/>
</svg>
