<svg xmlns="http://www.w3.org/2000/svg" viewBox="0 0 48 48">
  <title>board-edit</title>
  <g id="Layer_2" data-name="Layer 2">
    <g id="board-edit">
      <g>
        <path d="M45.567,33.928,41.5,29.86a1,1,0,0,0-1.414,0l-8.133,8.134a1,1,0,0,0-.26.452L30.24,43.967a1,1,0,0,0,.967,1.255.987.987,0,0,0,.255-.033l5.52-1.453a1,1,0,0,0,.452-.26l8.134-8.134A1,1,0,0,0,45.567,33.928ZM32.61,42.818l.525-1.993,1.52,1.455Zm4.045-1.393-2.711-2.595,6.849-6.849,2.653,2.653Z"/>
        <path d="M5,43V9A2,2,0,0,1,7,7h5.388l-.574,2.008H8a1,1,0,0,0-1,1V35a1,1,0,0,0,.293.707l7,7A1,1,0,0,0,15,43H28V41H16V35a1,1,0,0,0-1-1H9V11.008h2.243l-.205.718A1,1,0,0,0,12,13H32a1,1,0,0,0,.962-1.274l-.205-.718H35V24h2V10.008a1,1,0,0,0-1-1H32.185L31.612,7H37a2,2,0,0,1,2,2V25h2V9a4,4,0,0,0-4-4H31.04l-.078-.274A1,1,0,0,0,30,4H26a4,4,0,0,0-8,0H14a1,1,0,0,0-.962.726L12.96,5H7A4,4,0,0,0,3,9V43a4,4,0,0,0,4,4H29V45H7A2,2,0,0,1,5,43Zm9-7v3.586L10.414,36Zm.754-30H19a1,1,0,0,0,1-1V4a2,2,0,0,1,4,0V5a1,1,0,0,0,1,1h4.246l1.428,5H13.326Z"/>
        <rect x="13" y="19" width="7" height="2"/>
        <rect x="13" y="24" width="17" height="2"/>
        <rect x="13" y="29" width="14" height="2"/>
      </g>
    </g>
  </g>
</svg>
