<svg xmlns="http://www.w3.org/2000/svg" viewBox="0 0 48 48">
  <title>adding</title>
  <g id="adding">
    <g>
      <path d="M43,2H5A3,3,0,0,0,2,5V43a3,3,0,0,0,3,3H43a3,3,0,0,0,3-3V5A3,3,0,0,0,43,2Zm1,3V23H25V4H43A1,1,0,0,1,44,5ZM5,4H23V23H4V5A1,1,0,0,1,5,4ZM4,43V25H23V44H5A1,1,0,0,1,4,43Zm39,1H25V25H44V43A1,1,0,0,1,43,44Z"/>
      <polygon points="12 19 14 19 14 15 18 15 18 13 14 13 14 9 12 9 12 13 8 13 8 15 12 15 12 19"/>
      <rect x="29" y="13" width="10" height="2"/>
      <rect x="29" y="30" width="10" height="2"/>
      <rect x="29" y="36" width="10" height="2"/>
      <polygon points="17.243 31.171 15.829 29.757 13 32.586 10.171 29.757 8.757 31.171 11.586 34 8.757 36.829 10.171 38.243 13 35.414 15.829 38.243 17.243 36.829 14.414 34 17.243 31.171"/>
    </g>
  </g>
</svg>
