<svg xmlns="http://www.w3.org/2000/svg" viewBox="0 0 48 48">
  <title>play</title>
  <g id="play">
    <path d="M24,47A23,23,0,1,1,47,24,23.026,23.026,0,0,1,24,47ZM24,3A21,21,0,1,0,45,24,21.024,21.024,0,0,0,24,3ZM18,35.727a3,3,0,0,1-3-3V15.274a3,3,0,0,1,4.642-2.511h0l13.345,8.726a3,3,0,0,1,0,5.022L19.642,35.237A3,3,0,0,1,18,35.727Zm.008-21.457a1.04,1.04,0,0,0-.484.125.981.981,0,0,0-.524.88V32.726a1,1,0,0,0,1.548.837l13.345-8.726a1,1,0,0,0,0-1.673L18.548,14.437A.973.973,0,0,0,18.009,14.27Z"/>
  </g>
</svg>
