<svg xmlns="http://www.w3.org/2000/svg" viewBox="0 0 48 48">
  <title>forward</title>
  <g id="forward">
    <path d="M24,34.071a3,3,0,0,1-3-3v-1.25l-5.306,3.631h0A3,3,0,0,1,11,30.975V17.025a3,3,0,0,1,4.694-2.476L21,18.181V16.93a3,3,0,0,1,4.642-2.511l10.813,7.07a3,3,0,0,1,0,5.021l-10.812,7.07A3,3,0,0,1,24,34.071Zm-8.871-1.445h0ZM22,26.923a1,1,0,0,1,1,1V31.07a1,1,0,0,0,1.548.837l10.812-7.07a1,1,0,0,0,0-1.674l-10.813-7.07A1,1,0,0,0,23,16.93v3.147a1,1,0,0,1-1.565.825l-6.871-4.7A1,1,0,0,0,13,17.025v13.95a1,1,0,0,0,1.564.825l6.871-4.7A1,1,0,0,1,22,26.923ZM24,47A23,23,0,1,1,47,24,23.026,23.026,0,0,1,24,47ZM24,3A21,21,0,1,0,45,24,21.024,21.024,0,0,0,24,3Z"/>
  </g>
</svg>
