<svg xmlns="http://www.w3.org/2000/svg" viewBox="0 0 48 48">
  <title>send</title>
  <g id="send">
    <path d="M45.8,1.253a.987.987,0,0,0-.622-.172c-.022,0-.042,0-.063,0a.989.989,0,0,0-.308.081c-.016.008-.032.012-.048.02L1.629,22.517a1,1,0,0,0,.036,1.809l17.326,7.752-.116,14.914a1,1,0,0,0,.725.97,1.036,1.036,0,0,0,.275.038,1,1,0,0,0,.853-.479L27.757,36l12.669,5.668a1,1,0,0,0,1.4-.8L46.222,2.185A1,1,0,0,0,45.8,1.253ZM41.168,5.2,19.461,30.1,4.42,23.368ZM20.9,43.4l.082-10.426,4.932,2.207Zm19.092-4.112L21.369,30.951,43.874,5.134Z"/>
  </g>
</svg>
