<svg xmlns="http://www.w3.org/2000/svg" viewBox="0 0 48 48">
  <title>paint</title>
  <g id="paint">
    <path d="M39.215,41.452c-.668-2.158-3.575-3.578-6.651-5.082a21.7,21.7,0,0,1-4.889-2.888c.013-.012.029-.016.041-.028a32.111,32.111,0,0,0,5.318-7.664c3.3-6.478,4.862-14.358,1.245-16.2a3.038,3.038,0,0,0-.3-.109.952.952,0,0,0-.149-.118L16.461.5c-3.434-1.746-9.993,3.089-13.5,9.957A23.645,23.645,0,0,0,.287,20.707c-.03,3.3.9,5.683,2.547,6.523l17.373,8.857a1.008,1.008,0,0,0,.228.083c.018.011.034.024.052.034a10.572,10.572,0,0,1-2.178,3.073c-1.472,1.408-2.039,3.151-1.478,4.549C17.385,45.208,18.9,46,21,46H36.078a3.23,3.23,0,0,0,2.631-1.317A3.641,3.641,0,0,0,39.215,41.452ZM32.671,12.742a3.292,3.292,0,0,0-3.181.3c1.685-1.489,3.116-2.059,3.88-1.67s1.14,1.88.926,4.115A3.293,3.293,0,0,0,32.671,12.742ZM21.245,34.275c-.554-.618-.78-2.006-.612-3.81a3.757,3.757,0,0,0,1,2.252A14.385,14.385,0,0,1,21.245,34.275ZM2.287,20.725a21.925,21.925,0,0,1,2.461-9.357c3.468-6.8,9.08-9.963,10.8-9.083L30.488,9.9c-3.015,1.569-6.315,5.75-8.591,10.212a30.237,30.237,0,0,0-3.229,9.859,11.689,11.689,0,0,0,.019,3.1L3.743,25.448C3,25.069,2.262,23.462,2.287,20.725ZM37.1,43.5a1.217,1.217,0,0,1-1.021.5H21c-1.218,0-2.082-.343-2.313-.918-.246-.614.148-1.54,1-2.359a14.684,14.684,0,0,0,4.018-8.354,1,1,0,0,0-.541-.99c-1.036-.528-.89-4.688,1.694-9.755a20.822,20.822,0,0,1,4.167-5.783,4.366,4.366,0,0,1,2.444-1.376.63.63,0,0,1,.29.06c.413.21.74,1.215.54,2.985a20.83,20.83,0,0,1-2.234,6.77,25.431,25.431,0,0,1-3.677,5.309,3.712,3.712,0,0,0-1.311,3.237c.384,2.3,3.405,3.78,6.6,5.343,2.44,1.192,5.207,2.544,5.62,3.876A1.637,1.637,0,0,1,37.1,43.5Z"/>
  </g>
</svg>
