<svg xmlns="http://www.w3.org/2000/svg" viewBox="0 0 48 48">
  <title>design-palet</title>
  <g id="designpalet">
    <g>
      <path d="M42.006,9.69A20.027,20.027,0,0,0,28.4,2.319,23.911,23.911,0,0,0,10.931,7.563C2.772,14.118.665,23.179,2.16,28.825a9.292,9.292,0,0,0,7.681,7.163c3,.482,6-.941,8.645-2.2,2.927-1.389,4.778-2.156,5.792-1.1.684.712.475,1.214-.643,2.886a10.211,10.211,0,0,0-1.607,3.182,4.864,4.864,0,0,0,.965,4.476,5.56,5.56,0,0,0,4.287,1.8c.244,0,.493-.013.745-.038,3.328-.333,6.311-2.386,9.039-4.555a24.007,24.007,0,0,0,8.9-14.886A19.988,19.988,0,0,0,42.006,9.69Zm1.984,15.542a22.015,22.015,0,0,1-8.17,13.643c-2.489,1.979-5.181,3.848-7.994,4.13A3.8,3.8,0,0,1,24.5,41.926a2.918,2.918,0,0,1-.534-2.687A8.55,8.55,0,0,1,25.3,36.69c1.022-1.529,2.294-3.433.422-5.382A3.5,3.5,0,0,0,23.073,30.2c-1.675,0-3.579.9-5.443,1.786-2.384,1.13-5.089,2.413-7.471,2.028a7.278,7.278,0,0,1-6.065-5.7c-1.377-5.2.96-13.462,8.09-19.191A21.9,21.9,0,0,1,28.175,4.307,17.739,17.739,0,0,1,43.991,25.232Z"/>
      <path d="M13.267,18.667A5.333,5.333,0,1,0,18.6,24,5.34,5.34,0,0,0,13.267,18.667Zm0,8.667A3.333,3.333,0,1,1,16.6,24,3.338,3.338,0,0,1,13.267,27.333Z"/>
      <path d="M19.267,10a4,4,0,1,0,4,4A4,4,0,0,0,19.267,10Zm0,6a2,2,0,1,1,2-2A2,2,0,0,1,19.267,16Z"/>
      <path d="M29.267,9.083A2.917,2.917,0,1,0,32.183,12,2.92,2.92,0,0,0,29.267,9.083Zm0,3.833A.917.917,0,1,1,30.183,12,.918.918,0,0,1,29.267,12.917Z"/>
      <path d="M37.267,13.9a2.1,2.1,0,1,0,2.1,2.1A2.106,2.106,0,0,0,37.267,13.9Zm-.1,2.1a.1.1,0,1,1,.208,0C37.371,16.114,37.163,16.114,37.163,16Z"/>
    </g>
  </g>
</svg>
