<svg xmlns="http://www.w3.org/2000/svg" viewBox="0 0 48 48">
  <title>plug</title>
  <g id="plug">
    <path d="M40.728,8.357a6.5,6.5,0,0,0-11.1-4.595L17.611,15.782a2.558,2.558,0,0,1-3.536,0,2.5,2.5,0,0,1,0-3.53L20.7,5.712a1,1,0,0,0-1.4-1.424l-6.637,6.545A4.5,4.5,0,1,0,19.025,17.2L31.046,5.176A4.5,4.5,0,0,1,37.41,11.54L26.341,22.609a4.1,4.1,0,0,0-4.841.6l-.595.595a10.008,10.008,0,0,0-10.718,2.233l-4.95,4.95,2.828,2.828-4.95,4.951a1,1,0,1,0,1.414,1.414l4.95-4.951,5.657,5.658-4.949,4.95A1,1,0,1,0,11.6,47.249l4.95-4.95,2.828,2.828,4.949-4.949a9.993,9.993,0,0,0,2.237-10.722l.592-.592a4,4,0,0,0,.606-4.849L38.824,12.954A6.456,6.456,0,0,0,40.728,8.357ZM22.914,38.764,19.379,42.3,8.065,30.985,11.6,27.449A8,8,0,0,1,22.914,38.764Zm1.414-12.729a10.014,10.014,0,0,0-1.556-1.271l.142-.143a2.048,2.048,0,0,1,2.829,0,2,2,0,0,1,0,2.829l-.142.142A10.11,10.11,0,0,0,24.328,26.035Z" style="fill: #080808"/>
  </g>
</svg>
