<svg xmlns="http://www.w3.org/2000/svg" viewBox="0 0 48 48">
  <title>drive</title>
  <g id="drive">
    <g>
      <path d="M45.956,35.232a.971.971,0,0,0,0-.528L38.266,9.925A6.968,6.968,0,0,0,31.58,5H16.42A6.968,6.968,0,0,0,9.734,9.925L2.045,34.7a.971.971,0,0,0,0,.528A6.982,6.982,0,0,0,9,43H39a6.982,6.982,0,0,0,6.956-7.768ZM11.645,10.518A4.978,4.978,0,0,1,16.42,7H31.58a4.978,4.978,0,0,1,4.775,3.518l6,19.343A6.955,6.955,0,0,0,39,29H9a6.955,6.955,0,0,0-3.358.861ZM39,41H9A5,5,0,0,1,9,31H39a5,5,0,0,1,0,10Z" fill="#080808"/>
      <path d="M36,33a3,3,0,1,0,3,3A3,3,0,0,0,36,33Zm0,4a1,1,0,1,1,1-1A1,1,0,0,1,36,37Z" fill="#080808"/>
    </g>
  </g>
</svg>
