<svg xmlns="http://www.w3.org/2000/svg" viewBox="0 0 48 48">
  <title>drive-shelve</title>
  <g id="drive-shelve">
    <g>
      <path d="M36,33a3,3,0,1,0,3,3A3,3,0,0,0,36,33Zm0,4a1,1,0,1,1,1-1A1,1,0,0,1,36,37Z" fill="#080808"/>
      <path d="M36,27a3,3,0,1,0-3-3A3,3,0,0,0,36,27Zm0-4a1,1,0,1,1-1,1A1,1,0,0,1,36,23Z" fill="#080808"/>
      <path d="M46,8a3,3,0,0,0-3-3H5A3,3,0,0,0,2,8v8a2.977,2.977,0,0,0,.78,2A2.977,2.977,0,0,0,2,20v8a2.977,2.977,0,0,0,.78,2A2.977,2.977,0,0,0,2,32v8a3,3,0,0,0,3,3H43a3,3,0,0,0,3-3V32a2.977,2.977,0,0,0-.78-2A2.977,2.977,0,0,0,46,28V20a2.977,2.977,0,0,0-.78-2A2.977,2.977,0,0,0,46,16ZM4,8A1,1,0,0,1,5,7H43a1,1,0,0,1,1,1v8a1,1,0,0,1-1,1H5a1,1,0,0,1-1-1ZM44,20v8a1,1,0,0,1-1,1H5a1,1,0,0,1-1-1V20a1,1,0,0,1,1-1H43A1,1,0,0,1,44,20Zm0,20a1,1,0,0,1-1,1H5a1,1,0,0,1-1-1V32a1,1,0,0,1,1-1H43a1,1,0,0,1,1,1Z" fill="#080808"/>
      <path d="M36,15a3,3,0,1,0-3-3A3,3,0,0,0,36,15Zm0-4a1,1,0,1,1-1,1A1,1,0,0,1,36,11Z" fill="#080808"/>
      <path d="M9,14a1,1,0,0,0,1-1V11a1,1,0,0,0-2,0v2A1,1,0,0,0,9,14Z" fill="#080808"/>
      <path d="M12,14a1,1,0,0,0,1-1V11a1,1,0,0,0-2,0v2A1,1,0,0,0,12,14Z" fill="#080808"/>
      <path d="M15,14a1,1,0,0,0,1-1V11a1,1,0,0,0-2,0v2A1,1,0,0,0,15,14Z" fill="#080808"/>
      <path d="M9,26a1,1,0,0,0,1-1V23a1,1,0,0,0-2,0v2A1,1,0,0,0,9,26Z" fill="#080808"/>
      <path d="M12,26a1,1,0,0,0,1-1V23a1,1,0,0,0-2,0v2A1,1,0,0,0,12,26Z" fill="#080808"/>
      <path d="M15,26a1,1,0,0,0,1-1V23a1,1,0,0,0-2,0v2A1,1,0,0,0,15,26Z" fill="#080808"/>
      <path d="M9,34a1,1,0,0,0-1,1v2a1,1,0,0,0,2,0V35A1,1,0,0,0,9,34Z" fill="#080808"/>
      <path d="M12,34a1,1,0,0,0-1,1v2a1,1,0,0,0,2,0V35A1,1,0,0,0,12,34Z" fill="#080808"/>
      <path d="M15,34a1,1,0,0,0-1,1v2a1,1,0,0,0,2,0V35A1,1,0,0,0,15,34Z" fill="#080808"/>
    </g>
  </g>
</svg>
