<svg xmlns="http://www.w3.org/2000/svg" viewBox="0 0 48 48">
  <title>game-remote-2</title>
  <g id="game-remote-2">
    <g>
      <path d="M15,21H12V18a1,1,0,0,0-2,0v3H7a1,1,0,0,0,0,2h3v3a1,1,0,0,0,2,0V23h3a1,1,0,0,0,0-2Z" fill="#080808"/>
      <path d="M37,16a1,1,0,0,0-1,1v1a1,1,0,0,0,2,0V17A1,1,0,0,0,37,16Z" fill="#080808"/>
      <path d="M41,20H40a1,1,0,0,0,0,2h1a1,1,0,0,0,0-2Z" fill="#080808"/>
      <path d="M37,23a1,1,0,0,0-1,1v1a1,1,0,0,0,2,0V24A1,1,0,0,0,37,23Z" fill="#080808"/>
      <path d="M34,20H33a1,1,0,0,0,0,2h1a1,1,0,0,0,0-2Z" fill="#080808"/>
      <path d="M38,11H29V10a4,4,0,0,0-4-4h-.012a5.505,5.505,0,0,0-1.283-3.2A5.969,5.969,0,0,0,19,1a1,1,0,0,0,0,2,4.1,4.1,0,0,1,3.2,1.115A3.439,3.439,0,0,1,22.982,6,4,4,0,0,0,19,10v1H10a8.009,8.009,0,0,0-8,8V38a8.009,8.009,0,0,0,8,8h.646a2.987,2.987,0,0,0,2.786-1.886l4.491-11.229A2.986,2.986,0,0,1,20.708,31h6.584a2.986,2.986,0,0,1,2.785,1.886l4.491,11.229A2.987,2.987,0,0,0,37.354,46H38a8.009,8.009,0,0,0,8-8V19A8.009,8.009,0,0,0,38,11ZM21,10a2,2,0,0,1,2-2h2a2,2,0,0,1,2,2v1H21ZM44,38a6.007,6.007,0,0,1-6,6h-.646a1,1,0,0,1-.929-.628L31.935,32.144A4.975,4.975,0,0,0,27.292,29H20.708a4.975,4.975,0,0,0-4.643,3.144L11.574,43.371a1,1,0,0,1-.929.629H10a6.007,6.007,0,0,1-6-6V19a6.007,6.007,0,0,1,6-6H38a6.007,6.007,0,0,1,6,6Z" fill="#080808"/>
    </g>
  </g>
</svg>
