<svg xmlns="http://www.w3.org/2000/svg" viewBox="0 0 48 48">
  <title>processor</title>
  <g id="processor">
    <g>
      <path d="M12,36H36V12H12Zm2-22H34V34H14Z" fill="#080808"/>
      <path d="M46,25a1,1,0,0,0,0-2H41V15h5a1,1,0,0,0,0-2H41V11a4,4,0,0,0-4-4H35V2a1,1,0,0,0-2,0V7H25V2a1,1,0,0,0-2,0V7H15V2a1,1,0,0,0-2,0V7H11a4,4,0,0,0-4,4v2H2a1,1,0,0,0,0,2H7v8H2a1,1,0,0,0,0,2H7v8H2a1,1,0,0,0,0,2H7v2a4,4,0,0,0,4,4h2v5a1,1,0,0,0,2,0V41h8v5a1,1,0,0,0,2,0V41h8v5a1,1,0,0,0,2,0V41h2a4,4,0,0,0,4-4V35h5a1,1,0,0,0,0-2H41V25ZM39,37a2,2,0,0,1-2,2H11a2,2,0,0,1-2-2V11a2,2,0,0,1,2-2H37a2,2,0,0,1,2,2Z" fill="#080808"/>
      <path d="M17,16a1,1,0,0,0-1,1v4a1,1,0,0,0,2,0V17A1,1,0,0,0,17,16Z" fill="#080808"/>
      <path d="M22,17a1,1,0,0,0-2,0v4a1,1,0,0,0,2,0Z" fill="#080808"/>
      <path d="M25,22a1,1,0,0,0,1-1V17a1,1,0,0,0-2,0v4A1,1,0,0,0,25,22Z" fill="#080808"/>
      <path d="M22,32H32V26H22Zm2-4h6v2H24Z" fill="#080808"/>
    </g>
  </g>
</svg>
