<svg xmlns="http://www.w3.org/2000/svg" viewBox="0 0 48 48">
  <title>papper</title>
  <g id="Layer_2" data-name="Layer 2">
    <g id="papper">
      <path d="M42.707,13.293l-12-12A1,1,0,0,0,30,1H8A3,3,0,0,0,5,4v7a1,1,0,0,0,1,1H7a3,3,0,0,1,0,6H6a1,1,0,0,0-1,1V29a1,1,0,0,0,1,1H7a3,3,0,0,1,0,6H6a1,1,0,0,0-1,1v7a3,3,0,0,0,3,3H40a3,3,0,0,0,3-3V14A1,1,0,0,0,42.707,13.293ZM31,4.414,39.586,13H31ZM8,45a1,1,0,0,1-1-1V38A5,5,0,0,0,7,28V20A5,5,0,0,0,7,10V4A1,1,0,0,1,8,3h7V45Zm32,0H17V3H29V14a1,1,0,0,0,1,1H41V44A1,1,0,0,1,40,45Z"/>
    </g>
  </g>
</svg>
