<svg xmlns="http://www.w3.org/2000/svg" viewBox="0 0 48 48">
  <title>disorder-list</title>
  <g id="Layer_2" data-name="Layer 2">
    <g id="disorder-list">
      <g>
        <path d="M40,2H7A4,4,0,0,0,3,6V42a4,4,0,0,0,4,4H40a4,4,0,0,0,4-4V6A4,4,0,0,0,40,2Zm2,40a2,2,0,0,1-2,2H7a2,2,0,0,1-2-2V6A2,2,0,0,1,7,4H40a2,2,0,0,1,2,2Z"/>
        <path d="M10,17h8a1,1,0,0,0,1-1V10a1,1,0,0,0-1-1H10a1,1,0,0,0-1,1v6A1,1,0,0,0,10,17Zm1-6h6v4H11Z"/>
        <path d="M37,10H24a1,1,0,0,0,0,2H37a1,1,0,0,0,0-2Z"/>
        <path d="M37,14H24a1,1,0,0,0,0,2H37a1,1,0,0,0,0-2Z"/>
        <path d="M37,20H29a1,1,0,0,0-1,1v6a1,1,0,0,0,1,1h8a1,1,0,0,0,1-1V21A1,1,0,0,0,37,20Zm-1,6H30V22h6Z"/>
        <path d="M10,27H23a1,1,0,0,0,0-2H10a1,1,0,0,0,0,2Z"/>
        <path d="M10,23H23a1,1,0,0,0,0-2H10a1,1,0,0,0,0,2Z"/>
        <path d="M18,31H10a1,1,0,0,0-1,1v6a1,1,0,0,0,1,1h8a1,1,0,0,0,1-1V32A1,1,0,0,0,18,31Zm-1,6H11V33h6Z"/>
        <path d="M37,32H24a1,1,0,0,0,0,2H37a1,1,0,0,0,0-2Z"/>
        <path d="M37,36H24a1,1,0,0,0,0,2H37a1,1,0,0,0,0-2Z"/>
      </g>
    </g>
  </g>
</svg>
