<svg xmlns="http://www.w3.org/2000/svg" viewBox="0 0 48 48">
  <title>letter</title>
  <g id="Layer_2" data-name="Layer 2">
    <g id="letter">
      <g>
        <path d="M42.707,13.293l-12-12A1,1,0,0,0,30,1H8A3,3,0,0,0,5,4V44a3,3,0,0,0,3,3H40a3,3,0,0,0,3-3V14A1,1,0,0,0,42.707,13.293ZM31,4.414,39.586,13H31ZM40,45H8a1,1,0,0,1-1-1V4A1,1,0,0,1,8,3H29V14a1,1,0,0,0,1,1H41V44A1,1,0,0,1,40,45Z"/>
        <path d="M36,22H24a1,1,0,0,0,0,2H36a1,1,0,0,0,0-2Z"/>
        <path d="M36,28H12a1,1,0,0,0,0,2H36a1,1,0,0,0,0-2Z"/>
        <path d="M36,34H12a1,1,0,0,0,0,2H36a1,1,0,0,0,0-2Z"/>
        <path d="M12.188,23.06a.71.71,0,0,0,.684-.468l.708-1.619h4.078l.684,1.571a.759.759,0,0,0,.72.516.691.691,0,0,0,.7-.707.64.64,0,0,0-.084-.312l-3.119-6.957a.92.92,0,0,0-.875-.6h-.072a.937.937,0,0,0-.888.6L11.6,22.041a.75.75,0,0,0-.1.335A.676.676,0,0,0,12.188,23.06Zm3.43-6.788,1.475,3.395H14.142Z"/>
      </g>
    </g>
  </g>
</svg>
