<svg xmlns="http://www.w3.org/2000/svg" viewBox="0 0 48 48">
  <title>drawer-1</title>
  <g id="drawer-1">
    <path d="M37.426,3.336A2.993,2.993,0,0,0,34.93,2H13.07a2.993,2.993,0,0,0-2.5,1.336L1,17.7V42a3,3,0,0,0,3,3H44a3,3,0,0,0,3-3V17.7ZM12.238,4.445A1,1,0,0,1,13.07,4H34.93a1,1,0,0,1,.832.445L44.132,17H32.82a2,2,0,0,0-1.961,1.607l-.519,2.59a1,1,0,0,1-.98.8H18.64a1,1,0,0,1-.98-.8l-.519-2.588A2,2,0,0,0,15.18,17H3.868ZM44,43H4a1,1,0,0,1-1-1V31.816A2.965,2.965,0,0,0,4,32H15.18l.519,2.588A3.007,3.007,0,0,0,18.64,37H29.36A3.007,3.007,0,0,0,32.3,34.589L32.82,32H44a2.965,2.965,0,0,0,1-.184V42A1,1,0,0,1,44,43ZM17.219,32H30.781l-.44,2.2a1,1,0,0,1-.98.8H18.64a1,1,0,0,1-.98-.8ZM44,30H4a1,1,0,0,1-1-1V19H15.18l.519,2.588A3.007,3.007,0,0,0,18.64,24H29.36A3.007,3.007,0,0,0,32.3,21.589L32.82,19H45V29A1,1,0,0,1,44,30Z"/>
  </g>
</svg>
