<svg xmlns="http://www.w3.org/2000/svg" viewBox="0 0 48 48">
  <title>mail drawer</title>
  <g id="mail_drawer" data-name="mail drawer">
    <g>
      <path d="M37.427,4.924A3.018,3.018,0,0,0,34.626,3H13.374a3.019,3.019,0,0,0-2.8,1.923L1.066,29.641,1,29.814V43a3,3,0,0,0,3,3H44a3,3,0,0,0,3-3V29.814ZM12.44,5.641A1.006,1.006,0,0,1,13.374,5H34.626a1.006,1.006,0,0,1,.934.641L44.544,29H32.82a2,2,0,0,0-1.961,1.607l-.519,2.59a1,1,0,0,1-.98.8H18.64a1,1,0,0,1-.98-.8l-.519-2.588A2,2,0,0,0,15.18,29H3.456ZM45,43a1,1,0,0,1-1,1H4a1,1,0,0,1-1-1V31H15.18l.519,2.588A3.007,3.007,0,0,0,18.64,36H29.36A3.007,3.007,0,0,0,32.3,33.589L32.82,31H45Z"/>
      <path d="M9,28V25a1,1,0,0,1,1-1H38a1,1,0,0,1,1,1v3h2V25a3,3,0,0,0-2-2.816V20a3,3,0,0,0-2-2.816V15a3,3,0,0,0-2-2.816V10a3,3,0,0,0-3-3H16a3,3,0,0,0-3,3v2.184A3,3,0,0,0,11,15v2.184A3,3,0,0,0,9,20v2.184A3,3,0,0,0,7,25v3ZM16,9H32a1,1,0,0,1,1,1v2H15V10A1,1,0,0,1,16,9Zm-2,5H34a1,1,0,0,1,1,1v2H13V15A1,1,0,0,1,14,14Zm-2,5H36a1,1,0,0,1,1,1v2H11V20A1,1,0,0,1,12,19Z"/>
    </g>
  </g>
</svg>
