<svg xmlns="http://www.w3.org/2000/svg" viewBox="0 0 48 48">
  <title>drawer-2</title>
  <g id="drawer-2">
    <path d="M37.173,2.657A3.01,3.01,0,0,0,35.3,2H12.7a3.008,3.008,0,0,0-1.874.657L1,10.52V44a3,3,0,0,0,3,3H44a3,3,0,0,0,3-3V10.52Zm-25.1,1.562A1,1,0,0,1,12.7,4H35.3a1,1,0,0,1,.624.219L43.149,10H32.82a2,2,0,0,0-1.961,1.607l-.519,2.59a1,1,0,0,1-.98.8H18.64a1,1,0,0,1-.98-.8l-.519-2.588A2,2,0,0,0,15.18,10H4.851ZM44,45H4a1,1,0,0,1-1-1V34.816A2.965,2.965,0,0,0,4,35H15.18l.519,2.588A3.007,3.007,0,0,0,18.64,40H29.36A3.007,3.007,0,0,0,32.3,37.589L32.82,35H44a2.965,2.965,0,0,0,1-.184V44A1,1,0,0,1,44,45ZM17.219,35H30.781l-.44,2.2a1,1,0,0,1-.98.8H18.64a1,1,0,0,1-.98-.8ZM44,33H4a1,1,0,0,1-1-1V22.816A2.965,2.965,0,0,0,4,23H15.18l.519,2.588A3.007,3.007,0,0,0,18.64,28H29.36A3.007,3.007,0,0,0,32.3,25.589L32.82,23H44a2.965,2.965,0,0,0,1-.184V32A1,1,0,0,1,44,33ZM17.219,23H30.781l-.44,2.2a1,1,0,0,1-.98.8H18.64a1,1,0,0,1-.98-.8ZM44,21H4a1,1,0,0,1-1-1V12H15.18l.519,2.588A3.007,3.007,0,0,0,18.64,17H29.36A3.007,3.007,0,0,0,32.3,14.589L32.82,12H45v8A1,1,0,0,1,44,21Z"/>
  </g>
</svg>
