<svg xmlns="http://www.w3.org/2000/svg" viewBox="0 0 48 48">
  <title>downloads</title>
  <g id="downloads">
    <g>
      <path d="M37.436,13.411A2.981,2.981,0,0,0,34.892,12H32a1,1,0,0,0,0,2h2.892a.993.993,0,0,1,.848.471L44.2,28H32.82a2.006,2.006,0,0,0-1.961,1.607L30.341,32.2a1,1,0,0,1-.981.8H18.64a1,1,0,0,1-.981-.8l-.518-2.59A2.006,2.006,0,0,0,15.18,28H3.8l8.456-13.53a.994.994,0,0,1,.848-.47H16a1,1,0,0,0,0-2H13.108a2.982,2.982,0,0,0-2.544,1.41L1,28.713V43a3,3,0,0,0,3,3H44a3,3,0,0,0,3-3V28.713ZM45,43a1,1,0,0,1-1,1H4a1,1,0,0,1-1-1V30H15.18l.518,2.589A3.007,3.007,0,0,0,18.64,35H29.36A3.007,3.007,0,0,0,32.3,32.589L32.82,30H45Z"/>
      <path d="M20.707,9.707,23,7.414V24a1,1,0,0,0,2,0V7.414l2.293,2.293a1,1,0,0,0,1.414-1.414l-4-4,0,0L24,3.586l-.706.706,0,0-4,4a1,1,0,0,0,1.414,1.414Z"/>
    </g>
  </g>
</svg>
