<svg xmlns="http://www.w3.org/2000/svg" viewBox="0 0 48 48">
  <title>light</title>
  <g id="light">
    <path d="M45.213,7.029,40.971,2.787a5,5,0,0,0-7.071,0L22.586,14.1a5,5,0,0,0,0,7.071L24,22.586,22.586,24l-1.414-1.414a5.006,5.006,0,0,0-7.071,0L2.787,33.9a5,5,0,0,0,0,7.071l4.242,4.242a5.005,5.005,0,0,0,7.071,0L25.414,33.9a5,5,0,0,0,0-7.071L24,25.414,25.414,24l1.414,1.414a5.006,5.006,0,0,0,7.071,0L45.213,14.1a5,5,0,0,0,0-7.071ZM24,28.243a3,3,0,0,1,0,4.243L12.687,43.8a3,3,0,0,1-4.243,0L4.2,39.557a3,3,0,0,1,0-4.243L15.515,24a3,3,0,0,1,4.243,0l1.414,1.414-6.364,6.364a1,1,0,1,0,1.414,1.414l6.364-6.364ZM43.8,12.687,32.485,24a3.005,3.005,0,0,1-4.243,0l-1.414-1.414,6.364-6.364a1,1,0,0,0-1.414-1.414l-6.364,6.364L24,19.757a3,3,0,0,1,0-4.243L35.313,4.2a3,3,0,0,1,4.243,0L43.8,8.443a3,3,0,0,1,0,4.243Z"/>
  </g>
</svg>
