<svg xmlns="http://www.w3.org/2000/svg" viewBox="0 0 48 48">
  <title>pencil-2</title>
  <g id="pencil-2">
    <path d="M46.4,12,43.568,9.177h0l-4.24-4.24h0L36.5,2.1a3,3,0,0,0-4.243,0L5.383,28.975a.986.986,0,0,0-.2.3.962.962,0,0,0-.036.106,1,1,0,0,0-.043.125L2.278,45.06A1,1,0,0,0,3.44,46.222L19,43.394a1,1,0,0,0,.125-.043.958.958,0,0,0,.106-.036.986.986,0,0,0,.3-.2L46.4,16.247A3,3,0,0,0,46.4,12ZM10.778,42.855,5.645,37.722l1.088-5.984L16.761,41.767Zm3.8-6.1-2.829-2.829h0l26.87-26.87,2.829,2.829-26.87,26.87ZM33.667,3.519a1,1,0,0,1,1.415,0L37.2,5.64,10.333,32.51h0L7.5,29.682ZM5.21,40.115,8.385,43.29,4.5,44ZM44.981,14.833,18.818,41l-2.828-2.828h0L42.86,11.3l2.121,2.121A1,1,0,0,1,44.981,14.833Z"/>
  </g>
</svg>
