<svg xmlns="http://www.w3.org/2000/svg" viewBox="0 0 48 48">
  <title>braces</title>
  <g id="braces">
    <g>
      <path d="M15,18.18V6a4,4,0,0,1,4-4h2a1,1,0,0,0,0-2H19a6.007,6.007,0,0,0-6,6V18.18a4.893,4.893,0,0,1-3.923,4.785L8.8,23.02a1,1,0,0,0,0,1.961l.271.054A4.893,4.893,0,0,1,13,29.822l0,12.176a6,6,0,0,0,6,6H21a1,1,0,0,0,0-2H18.994a4,4,0,0,1-4-4l0-12.176A6.9,6.9,0,0,0,11.783,24,6.9,6.9,0,0,0,15,18.18Z"/>
      <path d="M39.239,23.27l-.543-.134a4.872,4.872,0,0,1-3.71-4.744L35,6.007A6,6,0,0,0,29,0H27a1,1,0,0,0,0,2h2a4,4,0,0,1,4,4L32.986,18.39a6.864,6.864,0,0,0,3.22,5.836A6.841,6.841,0,0,0,33,30.054V42a4,4,0,0,1-4,4H27a1,1,0,0,0,0,2h2a6.007,6.007,0,0,0,6-6V30.054a4.857,4.857,0,0,1,4.164-4.828,1,1,0,0,0,.075-1.957Z"/>
    </g>
  </g>
</svg>
