<svg xmlns="http://www.w3.org/2000/svg" viewBox="0 0 48 48">
  <title>bold-pen</title>
  <g id="bold-pen">
    <path d="M45.213,9.444,39.556,3.787a5,5,0,0,0-7.071,0L9.858,26.414a9,9,0,0,0-2.165,9.236l-4.2,4.2a1,1,0,0,0,.26,1.6l5.657,2.829a1,1,0,0,0,1.154-.187l2.806-2.806a9,9,0,0,0,2.757.438,9.412,9.412,0,0,0,6.651-2.776L45.213,16.515a5,5,0,0,0,0-7.071ZM9.661,42.168,5.889,40.282,8.6,37.567a9.106,9.106,0,0,0,1.69,1.983,8.657,8.657,0,0,0,1.143.841Zm1.953-4.12a7,7,0,0,1-.342-10.22l.168-.168a29.868,29.868,0,0,1,5.489,4.411,29.105,29.105,0,0,1,4.415,5.482A7.156,7.156,0,0,1,11.614,38.048ZM43.8,15.1l-21,21a32.149,32.149,0,0,0-4.457-5.442,32.621,32.621,0,0,0-5.449-4.451L33.9,5.2a3.071,3.071,0,0,1,4.243,0L43.8,10.858a3,3,0,0,1,0,4.243Z"/>
  </g>
</svg>
