<svg xmlns="http://www.w3.org/2000/svg" viewBox="0 0 48 48">
  <title>scissor</title>
  <g id="scissor">
    <path d="M47.263,18.377A7.489,7.489,0,0,0,32.5,20.7l-7.115,1.614,1.326-7.173c.127.006.255.018.381.018A7.495,7.495,0,0,0,33.25,3.417,7.493,7.493,0,0,0,19.709,6.3h0a7.478,7.478,0,0,0,5.036,8.475l-1.483,8.019L1.743,27.675a1,1,0,1,0,.442,1.95l20.681-4.69L19.01,45.788a1,1,0,0,0,.8,1.165,1.016,1.016,0,0,0,.183.017,1,1,0,0,0,.982-.818l4.013-21.7,7.965-1.806a7.482,7.482,0,0,0,14.308-4.27Zm-24.711-7.6a5.458,5.458,0,0,1-.876-4.112h0a5.493,5.493,0,1,1,.876,4.111ZM41.17,25.391a5.493,5.493,0,1,1,4.142-6.572A5.5,5.5,0,0,1,41.17,25.391Z"/>
  </g>
</svg>
