<svg xmlns="http://www.w3.org/2000/svg" viewBox="0 0 48 48">
  <title>joy</title>
  <g id="joy">
    <path d="M36.569,24.665A2.074,2.074,0,0,1,39.1,26.5C39.542,33.483,33.1,40.438,24,40.438S8.458,33.483,8.9,26.5a2.074,2.074,0,0,1,2.534-1.832C21.383,26.7,26.617,26.7,36.569,24.665Z" style="fill: none;stroke: #000;stroke-linecap: round;stroke-miterlimit: 10;stroke-width: 2px"/>
    <g>
      <path d="M24,1A23,23,0,1,0,47,24,23.026,23.026,0,0,0,24,1Zm0,44A21,21,0,1,1,45,24,21.023,21.023,0,0,1,24,45Z"/>
      <path d="M16,11.5A4.5,4.5,0,1,0,20.5,16,4.505,4.505,0,0,0,16,11.5Zm0,7A2.5,2.5,0,1,1,18.5,16,2.5,2.5,0,0,1,16,18.5Z"/>
      <path d="M32,11.5A4.5,4.5,0,1,0,36.5,16,4.505,4.505,0,0,0,32,11.5Zm0,7A2.5,2.5,0,1,1,34.5,16,2.5,2.5,0,0,1,32,18.5Z"/>
    </g>
  </g>
</svg>
