<svg xmlns="http://www.w3.org/2000/svg" viewBox="0 0 48 48">
  <title>mad</title>
  <g id="mad">
    <g>
      <path d="M24,1A23,23,0,1,0,47,24,23.026,23.026,0,0,0,24,1Zm0,44A21,21,0,1,1,45,24,21.023,21.023,0,0,1,24,45Z"/>
      <path d="M24,31.253a15.4,15.4,0,0,0-10.96,4.54,1,1,0,0,0,1.414,1.414,13.5,13.5,0,0,1,19.092,0,1,1,0,0,0,1.414-1.414A15.4,15.4,0,0,0,24,31.253Z"/>
      <path d="M14.927,18.341l1.793,1.793a1,1,0,0,0,1.414-1.414l-1.793-1.793,1.793-1.793A1,1,0,1,0,16.72,13.72l-1.793,1.793L13.134,13.72a1,1,0,1,0-1.414,1.414l1.793,1.793L11.72,18.72a1,1,0,1,0,1.414,1.414Z"/>
      <path d="M36.207,13.783a1,1,0,0,0-1.414,0l-1.774,1.774L31.2,13.775A1,1,0,0,0,29.8,15.2l1.8,1.767-1.662,1.662a1,1,0,1,0,1.414,1.414l1.677-1.677L34.8,20.1a1,1,0,0,0,1.4-1.429l-1.752-1.715L36.207,15.2A1,1,0,0,0,36.207,13.783Z"/>
    </g>
  </g>
</svg>
