<svg xmlns="http://www.w3.org/2000/svg" viewBox="0 0 48 48">
  <title>surprised</title>
  <g id="surprised">
    <g>
      <path d="M24,1A23,23,0,1,0,47,24,23.026,23.026,0,0,0,24,1Zm0,44A21,21,0,1,1,45,24,21.023,21.023,0,0,1,24,45Z"/>
      <path d="M24,23a8,8,0,1,0,8,8A8.009,8.009,0,0,0,24,23Zm0,14a6,6,0,1,1,6-6A6.006,6.006,0,0,1,24,37Z"/>
      <path d="M20.5,16A4.5,4.5,0,1,0,16,20.5,4.505,4.505,0,0,0,20.5,16Zm-7,0A2.5,2.5,0,1,1,16,18.5,2.5,2.5,0,0,1,13.5,16Z"/>
      <path d="M32,11.5A4.5,4.5,0,1,0,36.5,16,4.505,4.505,0,0,0,32,11.5Zm0,7A2.5,2.5,0,1,1,34.5,16,2.5,2.5,0,0,1,32,18.5Z"/>
    </g>
  </g>
</svg>
