<svg xmlns="http://www.w3.org/2000/svg" viewBox="0 0 48 48">
  <title>dejection</title>
  <g id="dejection">
    <g>
      <path d="M24,1A23,23,0,1,0,47,24,23.026,23.026,0,0,0,24,1ZM10.521,40.082a13.485,13.485,0,0,1,26.958,0,20.93,20.93,0,0,1-26.958,0Zm28.806-1.773a15.48,15.48,0,0,0-30.654,0,21,21,0,1,1,30.654,0Z"/>
      <path d="M16,12a4,4,0,1,0,4,4A4,4,0,0,0,16,12Zm0,6a2,2,0,1,1,2-2A2,2,0,0,1,16,18Z"/>
      <path d="M32,12a4,4,0,1,0,4,4A4,4,0,0,0,32,12Zm0,6a2,2,0,1,1,2-2A2,2,0,0,1,32,18Z"/>
    </g>
  </g>
</svg>
