<svg xmlns="http://www.w3.org/2000/svg" viewBox="0 0 48 48">
  <title>happy</title>
  <g id="happy">
    <g>
      <path d="M24,1A23,23,0,1,0,47,24,23.026,23.026,0,0,0,24,1Zm0,44A21,21,0,1,1,45,24,21.023,21.023,0,0,1,24,45Z"/>
      <path d="M15,20.5A4.5,4.5,0,1,0,10.5,16,4.505,4.505,0,0,0,15,20.5Zm0-7A2.5,2.5,0,1,1,12.5,16,2.5,2.5,0,0,1,15,13.5Z"/>
      <path d="M33,20.5A4.5,4.5,0,1,0,28.5,16,4.505,4.505,0,0,0,33,20.5Zm0-7A2.5,2.5,0,1,1,30.5,16,2.5,2.5,0,0,1,33,13.5Z"/>
      <path d="M38.5,23a1,1,0,0,0-1,1,13.5,13.5,0,0,1-27,0,1,1,0,0,0-2,0,15.5,15.5,0,0,0,31,0A1,1,0,0,0,38.5,23Z"/>
    </g>
  </g>
</svg>
