<svg xmlns="http://www.w3.org/2000/svg" viewBox="0 0 48 48">
  <title>file-1</title>
  <g id="Layer_2" data-name="Layer 2">
    <g id="file-1">
      <g>
        <path d="M42.707,13.293l-12-12A1,1,0,0,0,30,1H8A3,3,0,0,0,5,4V44a3,3,0,0,0,3,3H40a3,3,0,0,0,3-3V14A1,1,0,0,0,42.707,13.293ZM31,4.414,39.586,13H31ZM40,45H8a1,1,0,0,1-1-1V4A1,1,0,0,1,8,3H29V14a1,1,0,0,0,1,1H41V44A1,1,0,0,1,40,45Z"/>
        <path d="M12,18H24a1,1,0,0,0,0-2H12a1,1,0,0,0,0,2Z"/>
        <path d="M36,22H12a1,1,0,0,0,0,2H36a1,1,0,0,0,0-2Z"/>
        <path d="M36,28H12a1,1,0,0,0,0,2H36a1,1,0,0,0,0-2Z"/>
        <path d="M36,34H12a1,1,0,0,0,0,2H36a1,1,0,0,0,0-2Z"/>
      </g>
    </g>
  </g>
</svg>
