<svg xmlns="http://www.w3.org/2000/svg" viewBox="0 0 48 48">
  <title>file-label</title>
  <g id="Layer_2" data-name="Layer 2">
    <g id="file-label">
      <g>
        <path d="M39,5H4A1,1,0,0,0,3,6V46a1,1,0,0,0,1,1H39a3,3,0,0,0,3-3V8A3,3,0,0,0,39,5ZM5,7h6V45H5ZM40,44a1,1,0,0,1-1,1H13V7H39a1,1,0,0,1,1,1Z"/>
        <path d="M35,33H21a1,1,0,0,0-1,1v4a1,1,0,0,0,1,1H35a1,1,0,0,0,1-1V34A1,1,0,0,0,35,33Zm-1,4H22V35H34Z"/>
        <path d="M8,17a1,1,0,0,0-1,1v2a1,1,0,0,0,2,0V18A1,1,0,0,0,8,17Z"/>
        <path d="M8,28a1,1,0,0,0-1,1v2a1,1,0,0,0,2,0V29A1,1,0,0,0,8,28Z"/>
      </g>
    </g>
  </g>
</svg>
