<svg xmlns="http://www.w3.org/2000/svg" viewBox="0 0 48 48">
  <title>files-2</title>
  <g id="files-2">
    <g>
      <path d="M40,1H8A3,3,0,0,0,5,4V44a3,3,0,0,0,3,3H31a1,1,0,0,0,.588-.191l11-8A1,1,0,0,0,43,38V4A3,3,0,0,0,40,1ZM8,45a1,1,0,0,1-1-1V4A1,1,0,0,1,8,3H40a1,1,0,0,1,1,1V37H30a1,1,0,0,0-1,1v7Zm23-.237V39h7.925Z"/>
      <path d="M29,12a1,1,0,0,0,0-2H19a1,1,0,0,0,0,2Z"/>
      <path d="M27,21a1,1,0,0,0,1,1h4a1,1,0,0,0,0-2H28A1,1,0,0,0,27,21Z"/>
      <path d="M24,20H20a1,1,0,0,0,0,2h4a1,1,0,0,0,0-2Z"/>
      <path d="M16,20H12a1,1,0,0,0,0,2h4a1,1,0,0,0,0-2Z"/>
      <path d="M16,24H12a1,1,0,0,0,0,2h4a1,1,0,0,0,0-2Z"/>
      <path d="M24,24H20a1,1,0,0,0,0,2h4a1,1,0,0,0,0-2Z"/>
      <path d="M33,25a1,1,0,0,0-1-1H28a1,1,0,0,0,0,2h4A1,1,0,0,0,33,25Z"/>
      <path d="M22,28H20a1,1,0,0,0,0,2h2a1,1,0,0,0,0-2Z"/>
      <path d="M16,28H12a1,1,0,0,0,0,2h4a1,1,0,0,0,0-2Z"/>
    </g>
  </g>
</svg>
