<svg xmlns="http://www.w3.org/2000/svg" viewBox="0 0 48 48">
  <title>image-file</title>
  <g id="image-file">
    <g>
      <path d="M42.922,13.615a.994.994,0,0,0-.215-.322l-12-12A1,1,0,0,0,30,1H8A3,3,0,0,0,5,4V44a3,3,0,0,0,3,3H40a3,3,0,0,0,3-3V14A.988.988,0,0,0,42.922,13.615ZM31,4.414,39.586,13H31ZM8,3H29V14a1,1,0,0,0,1,1H41V28.03l-4.807-3.813a1,1,0,0,0-1.344.092L25.865,33.7l-6.443-4.42a1,1,0,0,0-1.244.091L7,39.712V4A1,1,0,0,1,8,3ZM40,45H8a1,1,0,0,1-1-1V42.437L18.95,31.376l6.485,4.449a1,1,0,0,0,1.288-.134l8.941-9.341L41,30.583V44A1,1,0,0,1,40,45Z"/>
      <path d="M18.5,26A5.5,5.5,0,1,0,13,20.5,5.506,5.506,0,0,0,18.5,26Zm0-9A3.5,3.5,0,1,1,15,20.5,3.5,3.5,0,0,1,18.5,17Z"/>
    </g>
  </g>
</svg>
