<svg xmlns="http://www.w3.org/2000/svg" viewBox="0 0 48 48">
  <title>file-graph</title>
  <g id="Layer_2" data-name="Layer 2">
    <g id="file-graph">
      <g>
        <path d="M42.707,13.293l-12-12A1,1,0,0,0,30,1H8A3,3,0,0,0,5,4V44a3,3,0,0,0,3,3H40a3,3,0,0,0,3-3V14A1,1,0,0,0,42.707,13.293ZM31,4.414,39.586,13H31ZM40,45H8a1,1,0,0,1-1-1V4A1,1,0,0,1,8,3H29V14a1,1,0,0,0,1,1H41V44A1,1,0,0,1,40,45Z"/>
        <path d="M32,35H14V31.414l5.726-5.726,1.379,2.759a1,1,0,0,0,1.6.26l7-7a1,1,0,0,0-1.414-1.414l-6.019,6.019-1.379-2.759a1,1,0,0,0-.734-.54,1.015,1.015,0,0,0-.867.28L14,28.586V17a1,1,0,0,0-2,0V36a1,1,0,0,0,1,1H32a1,1,0,0,0,0-2Z"/>
      </g>
    </g>
  </g>
</svg>
