<svg xmlns="http://www.w3.org/2000/svg" viewBox="0 0 48 48">
  <title>file-drawer</title>
  <g id="Layer_2" data-name="Layer 2">
    <g id="file-drawer">
      <g>
        <path d="M46.706,23.292,42,18.586V14a1,1,0,0,0-.293-.707l-12-12A1,1,0,0,0,29,1H9A3,3,0,0,0,6,4V18.586L1.294,23.292A1,1,0,0,0,1,24V43a4,4,0,0,0,4,4H43a4,4,0,0,0,4-4V24A1,1,0,0,0,46.706,23.292ZM43.586,23H42V21.414ZM30,4.414,38.586,13H30ZM9,3H28V14a1,1,0,0,0,1,1H40v8H35a1,1,0,0,0-.929.629l-1.245,3.114A1.991,1.991,0,0,1,30.969,28H17.031a1.99,1.99,0,0,1-1.857-1.257l-1.246-3.114A1,1,0,0,0,13,23H8V4A1,1,0,0,1,9,3ZM6,23H4.414L6,21.414ZM45,43a2,2,0,0,1-2,2H5a2,2,0,0,1-2-2V25h9.323l.995,2.485A3.981,3.981,0,0,0,17.031,30H30.969a3.982,3.982,0,0,0,3.714-2.515L35.677,25H45Z"/>
        <path d="M13,35a1,1,0,0,0,0,2H35a1,1,0,0,0,0-2Z"/>
      </g>
    </g>
  </g>
</svg>
