<svg xmlns="http://www.w3.org/2000/svg" viewBox="0 0 48 48">
  <title>thump-locker</title>
  <g id="thump-locker">
    <g>
      <path d="M21.29,25.705c-.053-1-.107-2.041-.107-3.113A2.821,2.821,0,0,1,24,19.773a2.87,2.87,0,0,1,2.818,2.863,1,1,0,0,0,2-.09A4.9,4.9,0,0,0,24,17.773a4.823,4.823,0,0,0-4.817,4.818c0,1.125.057,2.189.11,3.219.28,5.3.5,9.485-7.672,15.629a1,1,0,0,0,1.2,1.6C21.848,36.254,21.589,31.366,21.29,25.705Z"/>
      <path d="M24.363,41.35a1,1,0,0,0-1.381.3,21.573,21.573,0,0,1-2.477,3.159,1,1,0,1,0,1.453,1.373,23.421,23.421,0,0,0,2.707-3.454A1,1,0,0,0,24.363,41.35Z"/>
      <path d="M17.448,25c-.042-.812-.083-1.617-.083-2.409a6.636,6.636,0,0,1,13.174-1.135,1,1,0,1,0,1.971-.34,8.636,8.636,0,0,0-17.145,1.475c0,.826.042,1.664.085,2.511.248,4.857.481,9.445-7.282,13.6a1,1,0,0,0,.943,1.764C17.994,35.713,17.7,30.021,17.448,25Z"/>
      <path d="M26.124,44.418c-.112.162-.228.322-.345.478a1,1,0,1,0,1.6,1.205q.2-.268.394-.546a1,1,0,0,0-1.645-1.137Z"/>
      <path d="M13.717,24.149c-.062-.548-.124-1.1-.174-1.647a8.885,8.885,0,0,1,2.389-6.841A11.087,11.087,0,0,1,24,12.139a10.465,10.465,0,0,1,10.37,9.13,1,1,0,1,0,1.984-.25A12.469,12.469,0,0,0,24,10.139a13.12,13.12,0,0,0-9.545,4.173,10.864,10.864,0,0,0-2.9,8.37c.051.564.115,1.13.179,1.693.532,4.705.952,8.423-6.019,9.933a1,1,0,0,0,.424,1.955C14.872,34.369,14.259,28.94,13.717,24.149Z"/>
      <path d="M21.989,36.911a1,1,0,0,0-1.364.374,27.552,27.552,0,0,1-4.992,6.172A1,1,0,0,0,17.018,44.9a29.5,29.5,0,0,0,5.346-6.625A1,1,0,0,0,21.989,36.911Z"/>
      <path d="M24,21.592a1,1,0,0,0-1,1c0,.69.01,1.373.021,2.049l.014,1.054a1,1,0,0,0,1,.989h.011a1,1,0,0,0,.989-1.011L25.02,24.61c-.01-.666-.02-1.338-.02-2.019A1,1,0,0,0,24,21.592Z"/>
      <path d="M38.2,8.387A20.095,20.095,0,0,0,4.764,28.4a2.965,2.965,0,0,0,1.5,1.786,2.9,2.9,0,0,0,4.086-3.429,14.272,14.272,0,1,1,27.92-4.517,1,1,0,0,0,1,.976h.024a1,1,0,0,0,.976-1.024A16.271,16.271,0,1,0,8.433,27.336a.9.9,0,0,1-.564,1.1.888.888,0,0,1-.709-.043.947.947,0,0,1-.481-.579,18.091,18.091,0,1,1,35.41-5.226c0,.645-.012,1.383-.037,2.19a1,1,0,0,0,.967,1.031h.033a1,1,0,0,0,1-.968c.027-.831.039-1.591.039-2.255A19.958,19.958,0,0,0,38.2,8.387Z"/>
      <path d="M26.929,26.929a10,10,0,1,0,14.143,0A10.011,10.011,0,0,0,26.929,26.929ZM39,35h2a1,1,0,0,0,1-.978A7.984,7.984,0,0,1,34.022,42,1,1,0,0,0,35,41V39a1,1,0,0,0-2,0v2a1,1,0,0,0,.978,1A7.984,7.984,0,0,1,26,34.022,1,1,0,0,0,27,35h2a1,1,0,0,0,0-2H27a1,1,0,0,0-1,.978A7.985,7.985,0,0,1,33.981,26,1,1,0,0,0,33,27v2a1,1,0,0,0,2,0V27a1,1,0,0,0-.981-1A7.985,7.985,0,0,1,42,33.978,1,1,0,0,0,41,33H39a1,1,0,0,0,0,2Z"/>
      <path d="M39.48,29.934a1,1,0,0,0-1.414-1.414L37,29.581A1,1,0,1,0,38.419,31Z"/>
      <path d="M29.581,37,28.52,38.066a1,1,0,1,0,1.414,1.414L31,38.419A1,1,0,0,0,29.581,37Z"/>
      <path d="M37,37a1,1,0,0,0,0,1.414l1.062,1.062a1,1,0,0,0,1.414-1.414L38.419,37A1,1,0,0,0,37,37Z"/>
      <path d="M29.934,28.52a1,1,0,0,0-1.414,1.414L29.581,31A1,1,0,0,0,31,29.581Z"/>
    </g>
  </g>
</svg>
