<svg xmlns="http://www.w3.org/2000/svg" viewBox="0 0 48 48">
  <title>finger-press</title>
  <g id="finger-press">
    <g>
      <path d="M30.488,23.083a4.852,4.852,0,0,0-4.769-4.725,4.775,4.775,0,0,0-4.77,4.77c0,1.111.056,2.163.109,3.18.276,5.229.495,9.36-7.571,15.425a1,1,0,1,0,1.2,1.6c8.917-6.7,8.662-11.534,8.366-17.128-.052-.99-.106-2.016-.106-3.074a2.773,2.773,0,0,1,2.77-2.77,2.823,2.823,0,0,1,2.771,2.814c.457,10.1-1.465,16.849-6.23,21.888a1,1,0,0,0,1.453,1.375C28.882,40.97,30.972,33.768,30.488,23.083Z" fill="#080808"/>
      <path d="M34.259,23.128a8.54,8.54,0,1,0-17.08,0c0,.816.042,1.645.084,2.48.244,4.793.475,9.319-7.185,13.418a1,1,0,0,0,.943,1.764c8.778-4.7,8.491-10.321,8.238-15.283-.041-.8-.082-1.6-.082-2.379a6.54,6.54,0,1,1,13.081.047c.007.147.627,14.8-4.794,21.97a1,1,0,0,0,1.6,1.207C34.915,38.611,34.288,23.712,34.259,23.128Z" fill="#080808"/>
      <path d="M25.719,10.818a12.97,12.97,0,0,0-9.435,4.125,10.743,10.743,0,0,0-2.871,8.274c.05.558.113,1.117.176,1.673.524,4.642.939,8.307-5.933,9.795a1,1,0,1,0,.424,1.955c8.639-1.871,8.032-7.238,7.5-11.975-.061-.541-.123-1.085-.171-1.628a8.764,8.764,0,0,1,2.354-6.745,10.938,10.938,0,0,1,7.959-3.475,10.322,10.322,0,0,1,10.31,10.31c0,.122-.036,12.269-3.131,20.776a1,1,0,0,0,1.88.684c3.214-8.835,3.251-20.948,3.251-21.46A12.324,12.324,0,0,0,25.719,10.818Z" fill="#080808"/>
      <path d="M26.739,25.145c-.01-.665-.02-1.337-.02-2.017a1,1,0,0,0-2,0c0,.69.01,1.371.02,2.046.09,6.115.167,11.4-7.291,18.551a1,1,0,0,0,1.385,1.443C26.919,37.411,26.832,31.452,26.739,25.145Z" fill="#080808"/>
      <path d="M39.755,9.093A19.856,19.856,0,0,0,6.711,28.862a2.939,2.939,0,0,0,1.483,1.772,2.88,2.88,0,0,0,4.053-3.4A14.082,14.082,0,1,1,39.8,23.128a97.721,97.721,0,0,1-2.6,18.786,1,1,0,1,0,1.934.51,98.443,98.443,0,0,0,2.663-19.3,16.08,16.08,0,1,0-31.464,4.689.874.874,0,0,1-.55,1.074.861.861,0,0,1-.689-.043.918.918,0,0,1-.469-.562,17.852,17.852,0,1,1,34.943-5.158,72.561,72.561,0,0,1-1.462,14.479,1,1,0,0,0,1.952.436,74.728,74.728,0,0,0,1.51-14.914A19.719,19.719,0,0,0,39.755,9.093Z" fill="#080808"/>
    </g>
  </g>
</svg>
