<svg xmlns="http://www.w3.org/2000/svg" viewBox="0 0 48 48">
  <title>report-flag</title>
  <g id="report-flag">
    <path d="M43.52,8.285a1,1,0,0,0-.979-.034C35.909,11.68,30.852,9.592,25.5,7.384,20.487,5.319,15.316,3.2,9,5.935V3.5a2.5,2.5,0,0,0-5,0V48a1,1,0,0,0,1,1H8a1,1,0,0,0,1-1V30.154c5.945-2.99,10.72-1.031,15.764,1.055,3.4,1.406,6.87,2.842,10.772,2.842A16.949,16.949,0,0,0,43.459,32,1,1,0,0,0,44,31.116V9.14A1,1,0,0,0,43.52,8.285ZM7,47H6V3.5a.5.5,0,0,1,1,0ZM42,30.5c-6.363,3.046-11.278,1.013-16.473-1.136C20.515,27.288,15.343,25.156,9,27.937V8.146C14.918,5.2,19.692,7.155,24.732,9.232c5.176,2.135,10.52,4.336,17.268,1.481Z"/>
  </g>
</svg>
