<svg xmlns="http://www.w3.org/2000/svg" viewBox="0 0 48 48">
  <title>globe</title>
  <g id="globe">
    <path d="M47,24A23.026,23.026,0,0,0,24,1c-.238,0-.473.011-.709.018a1,1,0,0,0-.407.01,23,23,0,0,0-.008,45.943.982.982,0,0,0,.235.029,1.1,1.1,0,0,0,.139-.019c.249.008.5.019.75.019.037,0,.073,0,.11,0,.007,0,.015,0,.023,0s.026,0,.039,0A23.024,23.024,0,0,0,47,24Zm-4.055,9H34.6a27.119,27.119,0,0,0,0-18h8.348a20.736,20.736,0,0,1,0,18ZM13.11,24a25.168,25.168,0,0,1,1.662-9H23V33H14.772A25.168,25.168,0,0,1,13.11,24ZM31.6,13H25V4.62A25.037,25.037,0,0,1,31.6,13ZM23,4.027V13H15.641A25.063,25.063,0,0,1,23,4.027ZM23,35v8.973A25.063,25.063,0,0,1,15.641,35Zm2,8.38V35h6.6A25.037,25.037,0,0,1,25,43.38ZM25,33V15h7.472a25.2,25.2,0,0,1,0,18ZM41.854,13H33.806a27.03,27.03,0,0,0-7.451-9.859A21,21,0,0,1,41.854,13ZM20.722,3.282A27.013,27.013,0,0,0,13.438,13H6.146A21.009,21.009,0,0,1,20.722,3.282ZM5.055,15h7.592a27.119,27.119,0,0,0,0,18H5.055a20.736,20.736,0,0,1,0-18ZM6.146,35h7.292a27.013,27.013,0,0,0,7.284,9.718A21.009,21.009,0,0,1,6.146,35Zm20.209,9.859A27.03,27.03,0,0,0,33.806,35h8.048A21,21,0,0,1,26.355,44.859Z"/>
  </g>
</svg>
