<svg xmlns="http://www.w3.org/2000/svg" viewBox="0 0 48 48">
  <title>waves</title>
  <g id="wave">
    <g>
      <path d="M46,41V40a1,1,0,0,0-2,0v1H40V40a1,1,0,0,0-2,0v1H34V40a1,1,0,0,0-2,0v1H28V40a1,1,0,0,0-2,0v1H22V40a1,1,0,0,0-2,0v1H16V40a1,1,0,0,0-2,0v1H10V40a1,1,0,0,0-2,0v1H4V40a1,1,0,0,0-2,0v1a1,1,0,0,0,0,2H46a1,1,0,0,0,0-2Z"/>
      <path d="M46,32c-2.946,0-4.7-5.244-6.387-10.316-.507-1.522-1.021-3.054-1.58-4.489C40.066,14.362,42.388,12.2,46,12.2a1,1,0,0,0,0-2c-4.052,0-6.708,2.114-8.878,4.876C35.719,12.135,33.957,10,31.33,10c-4.389,0-6.368,5.939-8.283,11.684-.641,1.924-1.292,3.87-2.012,5.548-3.108-1.253-5.106-4.431-7.187-7.762-2.564-4.1-5.215-8.32-10.135-9.122A4.429,4.429,0,0,0,2,10a1,1,0,0,0-1,1,.934.934,0,0,0,.02.1.934.934,0,0,0-.02.1,1,1,0,0,0,1,1,8.357,8.357,0,0,1,1.135.084c2.281,1.145,3.786,5.649,5.247,10.032C10.295,28.061,12.274,34,16.66,34c2.414,0,4.1-1.8,5.444-4.376A10.5,10.5,0,0,0,24,29.8c6.055,0,9-4.713,11.848-9.27q.409-.654.815-1.294c.36,1,.708,2.045,1.054,3.08C39.632,28.061,41.611,34,46,34a1,1,0,0,0,0-2ZM16.66,32c-2.944,0-4.691-5.244-6.382-10.316a50.3,50.3,0,0,0-2.9-7.426,27.166,27.166,0,0,1,4.776,6.273c2.167,3.467,4.394,7.018,8,8.521C19.175,30.822,18.052,32,16.66,32ZM34.152,19.47C31.475,23.754,28.945,27.8,24,27.8a8.448,8.448,0,0,1-1.013-.065c.711-1.69,1.338-3.563,1.957-5.419C26.635,17.244,28.384,12,31.33,12c1.866,0,3.251,2.105,4.446,4.935C35.218,17.765,34.683,18.62,34.152,19.47Z"/>
    </g>
  </g>
</svg>
