<svg xmlns="http://www.w3.org/2000/svg" viewBox="0 0 48 48">
  <title>graph-node</title>
  <g id="graph-node">
    <path d="M45,44H4V19.209l9.909,8.7a2.946,2.946,0,0,0-.034.336,3,3,0,1,0,5.919-.669l9.023-7.921a2.771,2.771,0,0,0,3.2.154l8.153,7.157a2.967,2.967,0,0,0-.3,1.279,3,3,0,1,0,3-3,2.966,2.966,0,0,0-1.287.3l-8.326-7.309a3.049,3.049,0,0,0,.176-.992,2.908,2.908,0,1,0-5.813,0,3.059,3.059,0,0,0,.092.713L18.7,25.882a2.953,2.953,0,0,0-3.862.182L4,16.548V3A1,1,0,0,0,2,3V44a2,2,0,0,0,2,2H45a1,1,0,0,0,0-2ZM41.928,28.513l.808.709A.977.977,0,0,1,41.928,28.513ZM16.875,27.25a.956.956,0,0,1,.213.043l-.428.376-.295-.259A.971.971,0,0,1,16.875,27.25Z"/>
  </g>
</svg>
