<svg xmlns="http://www.w3.org/2000/svg" viewBox="0 0 48 48">
  <title>graph-smooth</title>
  <g id="graph-smooth">
    <path d="M46,28c-3.017,0-4.543-2.555-6.31-5.513C37.874,19.446,35.815,16,31.664,16s-6.21,3.446-8.027,6.487C21.87,25.445,20.343,28,17.327,28s-4.539-2.555-6.3-5.513C9.36,19.7,7.489,16.586,4,16.079V3A1,1,0,0,0,2,3V44a2,2,0,0,0,2,2H45a1,1,0,0,0,0-2H4V18.1c2.373.5,3.746,2.8,5.305,5.408C11.12,26.554,13.178,30,17.327,30s6.21-3.446,8.027-6.487C27.121,20.555,28.647,18,31.664,18s4.542,2.555,6.31,5.513C39.79,26.554,41.848,30,46,30a1,1,0,0,0,0-2Z"/>
  </g>
</svg>
