<svg xmlns="http://www.w3.org/2000/svg" viewBox="0 0 48 48">
  <title>node</title>
  <g id="node">
    <g>
      <path d="M46,41V40a1,1,0,0,0-2,0v1H40V40a1,1,0,0,0-2,0v1H34V40a1,1,0,0,0-2,0v1H28V40a1,1,0,0,0-2,0v1H22V40a1,1,0,0,0-2,0v1H16V40a1,1,0,0,0-2,0v1H10V40a1,1,0,0,0-2,0v1H4V40a1,1,0,0,0-2,0v1a1,1,0,0,0,0,2H46a1,1,0,0,0,0-2Z"/>
      <path d="M9,34a3.985,3.985,0,0,0,2.937-6.695l5.108-5.837a3.938,3.938,0,0,0,5.332-1.344l6.645,1.661c0,.072-.022.141-.022.214a4,4,0,1,0,6.384-3.193c.784-1.13,2.028-3.2,4.208-6.848A3.91,3.91,0,0,0,40,12a4.025,4.025,0,1,0-2.316-.75c-1.56,2.6-3.543,5.844-4.2,6.8A3.934,3.934,0,0,0,33,18a3.99,3.99,0,0,0-3.376,1.876l-6.645-1.661c0-.072.022-.141.022-.214a4,4,0,0,0-8,0,3.961,3.961,0,0,0,.6,2.081l-5.367,6.133A3.948,3.948,0,0,0,9,26a4,4,0,0,0,0,8ZM40,6a2,2,0,1,1-2,2A2,2,0,0,1,40,6ZM33,20a2,2,0,1,1-2,2A2,2,0,0,1,33,20ZM19,16a2,2,0,1,1-2,2A2,2,0,0,1,19,16ZM9,28a2,2,0,1,1-2,2A2,2,0,0,1,9,28Z"/>
    </g>
  </g>
</svg>
