<svg xmlns="http://www.w3.org/2000/svg" viewBox="0 0 48 48">
  <title>graph-top</title>
  <g id="graph-top">
    <path d="M45,44H4V39.973c32.46-.49,37.914-24.268,38.819-31.74l1.474,1.474a1,1,0,0,0,1.414-1.414L42.712,5.3h0l0,0a1,1,0,0,0-.31-.211c-.006,0-.014,0-.02,0A1,1,0,0,0,42.024,5c-.006,0-.011,0-.017,0H42a.93.93,0,0,0-.111.022.973.973,0,0,0-.241.048.959.959,0,0,0-.148.083.946.946,0,0,0-.142.08l-3.281,2.75a1,1,0,1,0,1.285,1.533L40.836,8.28C40.011,15.562,34.939,37.5,4,37.974V3A1,1,0,0,0,2,3V44a2,2,0,0,0,2,2H45a1,1,0,0,0,0-2Z"/>
  </g>
</svg>
