<svg xmlns="http://www.w3.org/2000/svg" viewBox="0 0 48 48">
  <title>infinity</title>
  <g id="infinity">
    <path d="M11.707,37.2a11.093,11.093,0,0,1-3.557-.585h0a12,12,0,0,1,0-22.736A11.7,11.7,0,0,1,22.1,19.645L24,23.153l1.9-3.508A11.7,11.7,0,0,1,39.85,13.882a12,12,0,0,1,0,22.736A11.7,11.7,0,0,1,25.9,30.855L24,27.347l-1.9,3.508A11.913,11.913,0,0,1,11.707,37.2ZM25.138,25.25,27.662,29.9a9.829,9.829,0,0,0,11.547,4.822,10,10,0,0,0,0-18.947A9.823,9.823,0,0,0,27.662,20.6ZM8.791,34.724A9.828,9.828,0,0,0,20.338,29.9l2.524-4.65L20.338,20.6A9.829,9.829,0,0,0,8.791,15.776a10,10,0,0,0,0,18.947Z"/>
  </g>
</svg>
