<svg xmlns="http://www.w3.org/2000/svg" viewBox="0 0 48 48">
  <title>mail</title>
  <g id="mail-2" data-name="mail">
    <path d="M44.387,8.356l-.077-.081-.026.025A2.965,2.965,0,0,0,43,8H5a2.965,2.965,0,0,0-1.285.3l-.026-.025-.077.081A2.991,2.991,0,0,0,2,11V40a2.99,2.99,0,0,0,1.536,2.6l.129.145.052-.047A2.965,2.965,0,0,0,5,43H43a2.966,2.966,0,0,0,1.283-.3l.052.047.129-.145A2.99,2.99,0,0,0,46,40V11A2.991,2.991,0,0,0,44.387,8.356ZM28.554,26.044,44,11.334v28.44ZM42.5,10,25.379,26.3a2,2,0,0,1-2.759,0L5.5,10ZM4,39.773V11.334l15.446,14.71ZM5.63,41,20.9,27.428l.343.326a4,4,0,0,0,5.517,0l.343-.326L42.37,41Z"/>
  </g>
</svg>
