<svg id="Layer_1" data-name="Layer 1" xmlns="http://www.w3.org/2000/svg" viewBox="0 0 48 48">
  <title>Artboard 1</title>
  <path d="M44,2H4A2,2,0,0,0,2,4V44a2,2,0,0,0,2,2H44a2,2,0,0,0,2-2V4A2,2,0,0,0,44,2ZM16,39a1,1,0,0,1-1,1H9a1,1,0,0,1-1-1V33a1,1,0,0,1,1-1h6a1,1,0,0,1,1,1Zm0-12a1,1,0,0,1-1,1H9a1,1,0,0,1-1-1V21a1,1,0,0,1,1-1h6a1,1,0,0,1,1,1Zm0-12a1,1,0,0,1-1,1H9a1,1,0,0,1-1-1V9A1,1,0,0,1,9,8h6a1,1,0,0,1,1,1ZM28,39a1,1,0,0,1-1,1H21a1,1,0,0,1-1-1V33a1,1,0,0,1,1-1h6a1,1,0,0,1,1,1Zm0-12a1,1,0,0,1-1,1H21a1,1,0,0,1-1-1V21a1,1,0,0,1,1-1h6a1,1,0,0,1,1,1Zm0-12a1,1,0,0,1-1,1H21a1,1,0,0,1-1-1V9a1,1,0,0,1,1-1h6a1,1,0,0,1,1,1ZM40,39a1,1,0,0,1-1,1H33a1,1,0,0,1-1-1V33a1,1,0,0,1,1-1h6a1,1,0,0,1,1,1Zm0-12a1,1,0,0,1-1,1H33a1,1,0,0,1-1-1V21a1,1,0,0,1,1-1h6a1,1,0,0,1,1,1Zm0-12a1,1,0,0,1-1,1H33a1,1,0,0,1-1-1V9a1,1,0,0,1,1-1h6a1,1,0,0,1,1,1Z" style="fill: #444"/>
</svg>
