<svg xmlns="http://www.w3.org/2000/svg" viewBox="0 0 48 48">
  <title>group-share</title>
  <g id="group-share">
    <path d="M39,34a6.947,6.947,0,0,0-3.55.978L31,29.641a8.961,8.961,0,0,0,.022-11.252l8.222-8.222a5.015,5.015,0,1,0-1.414-1.414l-8.222,8.222A8.958,8.958,0,0,0,17.3,18.017L10.8,14.308A4.935,4.935,0,0,0,11,13a5.061,5.061,0,1,0-1.1,3.093l6.228,3.559a8.96,8.96,0,0,0,.85,9.959l-5.323,5.323A3.455,3.455,0,0,0,10,34.5,3.5,3.5,0,1,0,13.5,38a3.455,3.455,0,0,0-.434-1.652l5.323-5.323a8.955,8.955,0,0,0,11.186.027l4.316,5.179A6.99,6.99,0,1,0,39,34ZM6,16a3,3,0,1,1,3-3A3,3,0,0,1,6,16ZM42,3a3,3,0,1,1-3,3A3,3,0,0,1,42,3ZM10,39.5A1.5,1.5,0,1,1,11.5,38,1.5,1.5,0,0,1,10,39.5ZM24,31a7,7,0,1,1,7-7A7.008,7.008,0,0,1,24,31ZM39,46a5,5,0,1,1,5-5A5.006,5.006,0,0,1,39,46Z" fill="#080808"/>
  </g>
</svg>
