<svg xmlns="http://www.w3.org/2000/svg" viewBox="0 0 48 48">
  <title>page-back</title>
  <g id="page-back">
    <path d="M45.925,11.628a.968.968,0,0,0-.082-.133.989.989,0,0,0-.1-.163l-9-10c-.006-.006-.014-.008-.02-.014a.99.99,0,0,0-.247-.179c-.028-.015-.049-.04-.078-.053A.993.993,0,0,0,36,1H18a4,4,0,0,0-4,4V8H6a4,4,0,0,0-4,4V43a4,4,0,0,0,4,4H30a4,4,0,0,0,4-4V40h8a4,4,0,0,0,4-4V12A1,1,0,0,0,45.925,11.628ZM37,4.606,42.755,11H39a2,2,0,0,1-2-2ZM30,45H6a2,2,0,0,1-2-2V12a2,2,0,0,1,2-2H23v6a4,4,0,0,0,4,4h5V43A2,2,0,0,1,30,45Zm.755-27H27a2,2,0,0,1-2-2V11.606ZM42,38H34V19a1,1,0,0,0-.075-.372.968.968,0,0,0-.082-.133.989.989,0,0,0-.1-.163l-9-10c-.006-.006-.014-.008-.02-.014a.99.99,0,0,0-.247-.179c-.028-.015-.049-.04-.078-.053A.993.993,0,0,0,24,8H16V5a2,2,0,0,1,2-2H35V9a4,4,0,0,0,4,4h5V36A2,2,0,0,1,42,38Z"/>
  </g>
</svg>
