<svg xmlns="http://www.w3.org/2000/svg" viewBox="0 0 48 48">
  <title>papper</title>
  <g id="papper">
    <g>
      <path d="M37,6H17A11.012,11.012,0,0,0,6,17V44.951L6.95,45c.177.009,1.643.079,3.746.079,4.438,0,11.718-.312,15.725-2.17l.176-.082.133-.142A19.639,19.639,0,0,0,31,31V28h6c4.411,0,8-4.935,8-11S41.411,6,37,6ZM25.4,41.176C20.729,43.22,11.06,43.123,8,43.036V32H9V30H8V17a9.01,9.01,0,0,1,9-9H32.415A12.581,12.581,0,0,0,29,17c0,.285.016.566.031.846A.94.94,0,0,0,29,18V30H28v2h.958A18.1,18.1,0,0,1,25.4,41.176ZM31,24.251A9.686,9.686,0,0,0,32.415,26H31ZM37,26c-3.309,0-6-4.038-6-9s2.691-9,6-9,6,4.038,6,9S40.309,26,37,26Z" fill="#0a0a0a"/>
      <path d="M37.336,12.651c-1.58,0-2.771,1.837-2.771,4.273S35.757,21.2,37.336,21.2s2.771-1.837,2.771-4.273S38.916,12.651,37.336,12.651Zm0,6.547c-.18-.036-.774-.814-.774-2.274s.594-2.238.767-2.273c.18.036.774.813.774,2.273S37.513,19.163,37.34,19.2Z" fill="#0a0a0a"/>
      <rect x="12.8" y="30" width="3.8" height="2" fill="#0a0a0a"/>
      <rect x="20.4" y="30" width="3.8" height="2" fill="#0a0a0a"/>
    </g>
  </g>
</svg>
