<svg width="512" height="512" viewBox="0 0 512 512" fill="none" xmlns="http://www.w3.org/2000/svg">
<path fill-rule="evenodd" clip-rule="evenodd" d="M112.253 91.2531C106.59 85.5905 100.41 88.5905 94.7469 94.2531C89.0844 99.9157 86.0844 106.097 91.747 111.759L141.113 161.125C91.2319 183.603 49.9103 217.088 25.1232 247.301C20.9589 252.376 20.9589 259.686 25.1232 264.762C68.6673 317.838 158.933 377.063 256 377.063C286.06 377.063 315.15 371.453 342.25 362.262L401.241 421.253C406.904 426.916 413.085 423.916 418.747 418.253C424.41 412.591 427.41 406.41 421.747 400.747L112.253 91.2531ZM311.342 331.354L180.676 200.688C169.253 216.194 162.497 235.338 162.497 256.031C162.497 307.585 204.44 349.534 255.999 349.534C276.692 349.534 295.836 342.777 311.342 331.354ZM54.3585 256.035C69.8511 239.933 107.207 205.182 159.645 182.879C126.737 226.12 126.724 285.906 159.63 329.163C119.759 312.264 82.7211 285.566 54.3585 256.035Z" fill="black"/>
<path d="M349.502 256.031C349.502 265.554 348.071 274.749 345.412 283.412L366.772 304.772C384.23 265.233 379.433 218.476 352.37 182.899C392.239 199.798 429.278 226.497 457.642 256.026C444.863 269.31 417.209 295.278 378.485 316.485L398.775 336.775C436.6 315.322 467.368 288.53 486.877 264.762C491.041 259.686 491.041 252.376 486.877 247.301C444.341 195.477 354.286 135 256 135C237.873 135 220.036 137.056 202.732 140.732L228.618 166.618C237.281 163.959 246.476 162.528 255.999 162.528C307.562 162.529 349.502 204.48 349.502 256.031Z" fill="black"/>
</svg>
