<svg width="512" height="512" viewBox="0 0 512 512" fill="none" xmlns="http://www.w3.org/2000/svg">
<path fill-rule="evenodd" clip-rule="evenodd" d="M256 302.831C230.194 302.831 209.2 281.837 209.2 256.031C209.2 230.225 230.194 209.231 256 209.231C281.805 209.231 302.8 230.225 302.8 256.031C302.8 281.837 281.805 302.831 256 302.831ZM256 275.302C266.625 275.302 275.271 266.657 275.271 256.031C275.271 245.405 266.625 236.76 256 236.76C245.374 236.76 236.729 245.405 236.729 256.031C236.729 266.657 245.374 275.302 256 275.302Z" fill="black"/>
<path fill-rule="evenodd" clip-rule="evenodd" d="M256 135C354.286 135 444.341 195.477 486.877 247.3C491.041 252.376 491.041 259.686 486.877 264.762C446.187 314.335 356.516 377.063 256 377.063C158.933 377.063 68.6673 317.838 25.1232 264.761C20.9589 259.686 20.9589 252.376 25.1232 247.3C67.3028 195.889 157.361 135 256 135ZM255.999 349.534C307.557 349.534 349.502 307.588 349.502 256.031C349.502 204.48 307.562 162.529 255.999 162.528C204.441 162.528 162.497 204.474 162.497 256.031C162.497 307.585 204.44 349.534 255.999 349.534ZM159.645 182.879C107.207 205.182 69.8511 239.933 54.3585 256.035C82.7211 285.566 119.759 312.264 159.63 329.163C126.724 285.906 126.737 226.12 159.645 182.879ZM352.37 182.899C385.275 226.156 385.263 285.941 352.355 329.183C404.793 306.879 442.149 272.13 457.642 256.026C429.278 226.497 392.239 199.798 352.37 182.899Z" fill="black"/>
</svg>
