<svg xmlns="http://www.w3.org/2000/svg" viewBox="0 0 48 48">
  <title>printer</title>
  <g id="printer">
    <g>
      <path d="M44,16H43V14a3,3,0,0,0-3-3H38V10a1,1,0,0,0-.253-.664l-8-9A1,1,0,0,0,29,0H12a2,2,0,0,0-2,2v9H8a3,3,0,0,0-3,3v2H4a4,4,0,0,0-4,4V38a1,1,0,0,0,1,1h9v7a2,2,0,0,0,2,2H36a2,2,0,0,0,2-2V39h9a1,1,0,0,0,1-1V20A4,4,0,0,0,44,16Zm-4-3a1,1,0,0,1,1,1v2H38V13ZM30,3.63,34.773,9H30ZM28,2V9a2,2,0,0,0,2,2h6v5H12V2ZM7,14a1,1,0,0,1,1-1h2v3H7Zm5,32V34H36l0,12Zm34-9H38V34h2V32H8v2h2v3H2V20a2,2,0,0,1,2-2H44a2,2,0,0,1,2,2Z"/>
      <rect x="17" y="37" width="14" height="2"/>
      <rect x="17" y="41" width="14" height="2"/>
      <rect x="6" y="21" width="6" height="2"/>
    </g>
  </g>
</svg>
