<svg xmlns="http://www.w3.org/2000/svg" viewBox="0 0 48 48">
  <title>adjust-lavel</title>
  <g id="adjust-lavel">
    <path d="M45,9H16V7a2,2,0,0,0-2-2H12a2,2,0,0,0-2,2V9H3a1,1,0,0,0,0,2h7v2a2,2,0,0,0,2,2h2a2,2,0,0,0,2-2V11H45a1,1,0,0,0,0-2ZM12,13V7h2v6Zm33,5H35V16a2,2,0,0,0-2-2H31a2,2,0,0,0-2,2v2H3a1,1,0,0,0,0,2H29v2a2,2,0,0,0,2,2h2a2,2,0,0,0,2-2V20H45a1,1,0,0,0,0-2ZM31,22V16h2v6ZM45,36H38V34a2,2,0,0,0-2-2H34a2,2,0,0,0-2,2v2H3a1,1,0,0,0,0,2H32v2a2,2,0,0,0,2,2h2a2,2,0,0,0,2-2V38h7a1,1,0,0,0,0-2Zm-9,4H34V34h2Zm9-13H18V25a2,2,0,0,0-2-2H14a2,2,0,0,0-2,2v2H3a1,1,0,0,0,0,2h9v2a2,2,0,0,0,2,2h2a2,2,0,0,0,2-2V29H45a1,1,0,0,0,0-2ZM16,31H14V25h2Z"/>
  </g>
</svg>
