<svg xmlns="http://www.w3.org/2000/svg" viewBox="0 0 48 48">
  <title>adjust </title>
  <g id="adjust">
    <path d="M15,30a5.008,5.008,0,0,0-4-4.9V4A1,1,0,0,0,9,4V25.1a5,5,0,0,0,0,9.8V44a1,1,0,0,0,2,0V34.9A5.008,5.008,0,0,0,15,30Zm-5,3a3,3,0,1,1,3-3A3,3,0,0,1,10,33ZM25,11a5.008,5.008,0,0,0-4-4.9V4a1,1,0,0,0-2,0V6.1a5,5,0,0,0,0,9.8V44a1,1,0,0,0,2,0V15.9A5.008,5.008,0,0,0,25,11Zm-5,3a3,3,0,1,1,3-3A3,3,0,0,1,20,14ZM35,28a5.008,5.008,0,0,0-4-4.9V4a1,1,0,0,0-2,0V23.1a5,5,0,0,0,0,9.8V44a1,1,0,0,0,2,0V32.9A5.008,5.008,0,0,0,35,28Zm-5,3a3,3,0,1,1,3-3A3,3,0,0,1,30,31ZM45,15a5.008,5.008,0,0,0-4-4.9V4a1,1,0,0,0-2,0v6.1a5,5,0,0,0,0,9.8V44a1,1,0,0,0,2,0V19.9A5.008,5.008,0,0,0,45,15Zm-5,3a3,3,0,1,1,3-3A3,3,0,0,1,40,18Z"/>
  </g>
</svg>
