<svg xmlns="http://www.w3.org/2000/svg" viewBox="0 0 48 48">
  <title>setting-roll</title>
  <g id="setting-roll">
    <g>
      <path d="M44.537,19.718h0l-2.123-.385a18.806,18.806,0,0,0-2.1-5.045l1.233-1.78A3,3,0,0,0,41.2,8.678L39.322,6.8a3,3,0,0,0-3.829-.346L33.712,7.684a18.8,18.8,0,0,0-5.044-2.1l-.386-2.123A3,3,0,0,0,25.331,1H22.669a3,3,0,0,0-2.952,2.464l-.386,2.122a18.8,18.8,0,0,0-5.044,2.1L12.506,6.45A3,3,0,0,0,8.678,6.8L6.8,8.678a3,3,0,0,0-.345,3.829l1.233,1.78a18.806,18.806,0,0,0-2.1,5.045l-2.123.386A3,3,0,0,0,1,22.669v2.662a3,3,0,0,0,2.463,2.952l2.123.385a18.806,18.806,0,0,0,2.1,5.045L6.45,35.493A3,3,0,0,0,6.8,39.322L8.678,41.2a3,3,0,0,0,3.829.346l1.781-1.233a18.789,18.789,0,0,0,5.044,2.1l.386,2.123A3,3,0,0,0,22.669,47h2.662a3,3,0,0,0,2.952-2.464l.386-2.122a18.789,18.789,0,0,0,5.044-2.1l1.781,1.233a3,3,0,0,0,3.829-.346L41.2,39.322a3,3,0,0,0,.345-3.829l-1.233-1.78a18.806,18.806,0,0,0,2.1-5.045l2.123-.386A3,3,0,0,0,47,25.331V22.669A3,3,0,0,0,44.537,19.718ZM45,25.331a1,1,0,0,1-.821.983l-2.769.5a1,1,0,0,0-.8.774A16.849,16.849,0,0,1,38.281,33.2a1,1,0,0,0,.018,1.111l1.606,2.32a1,1,0,0,1-.115,1.276L37.908,39.79a1,1,0,0,1-1.276.115L34.312,38.3a1,1,0,0,0-1.112-.018,16.849,16.849,0,0,1-5.608,2.331,1,1,0,0,0-.773.8l-.5,2.767a1,1,0,0,1-.984.822H22.669a1,1,0,0,1-.984-.821l-.5-2.768a1,1,0,0,0-.773-.8A16.849,16.849,0,0,1,14.8,38.281a1,1,0,0,0-1.112.018l-2.32,1.606a1,1,0,0,1-1.277-.115L8.209,37.908a1,1,0,0,1-.115-1.276L9.7,34.312A1,1,0,0,0,9.719,33.2a16.849,16.849,0,0,1-2.331-5.608,1,1,0,0,0-.8-.774l-2.769-.5A1,1,0,0,1,3,25.331V22.669a1,1,0,0,1,.821-.983l2.769-.5a1,1,0,0,0,.8-.774A16.849,16.849,0,0,1,9.719,14.8,1,1,0,0,0,9.7,13.688l-1.606-2.32a1,1,0,0,1,.115-1.276L10.092,8.21a1,1,0,0,1,1.276-.115L13.688,9.7a1,1,0,0,0,1.112.018,16.862,16.862,0,0,1,5.608-2.331,1,1,0,0,0,.773-.8l.5-2.767A1,1,0,0,1,22.669,3h2.662a1,1,0,0,1,.984.821l.5,2.768a1,1,0,0,0,.773.8A16.862,16.862,0,0,1,33.2,9.719,1,1,0,0,0,34.312,9.7l2.32-1.606a1,1,0,0,1,1.277.115l1.882,1.882a1,1,0,0,1,.115,1.276L38.3,13.688a1,1,0,0,0-.018,1.111,16.849,16.849,0,0,1,2.331,5.608,1,1,0,0,0,.8.774l2.769.5a1,1,0,0,1,.821.983Z"/>
      <path d="M24,15a9,9,0,1,0,9,9A9.01,9.01,0,0,0,24,15Zm0,16a7,7,0,1,1,7-7A7.008,7.008,0,0,1,24,31Z"/>
    </g>
  </g>
</svg>
