<svg xmlns="http://www.w3.org/2000/svg" viewBox="0 0 48 48">
  <title>storager</title>
  <g id="storager">
    <path d="M41.917,6.6C41.081,2.925,32.5,1,24,1S6.919,2.925,6.083,6.6A.994.994,0,0,0,6,7V40a1,1,0,0,0,.631.925C8.8,43.859,16.43,45.389,24,45.389s15.2-1.53,17.369-4.463A1,1,0,0,0,42,40V7A.994.994,0,0,0,41.917,6.6ZM40,31.194c0,1.71-6.233,4.194-16,4.194S8,32.9,8,31.194V26.18c3.153,2.112,9.6,3.209,16,3.209s12.847-1.1,16-3.209Zm0-8c0,1.71-6.233,4.194-16,4.194S8,24.9,8,23.194V18.18c3.153,2.112,9.6,3.209,16,3.209s12.847-1.1,16-3.209Zm0-8c0,1.71-6.233,4.194-16,4.194S8,16.9,8,15.194V10.18c3.153,2.112,9.6,3.209,16,3.209s12.847-1.1,16-3.209ZM24,3c9.767,0,16,2.484,16,4.194s-6.233,4.194-16,4.194S8,8.9,8,7.194,14.233,3,24,3Zm0,40.389c-9.767,0-16-2.484-16-4.194V34.18c3.153,2.112,9.6,3.209,16,3.209s12.847-1.1,16-3.209v5.015C40,40.9,33.767,43.389,24,43.389Z" fill="#080808"/>
  </g>
</svg>
