<svg xmlns="http://www.w3.org/2000/svg" viewBox="0 0 48 48">
  <title>alarm</title>
  <g id="alarm">
    <g>
      <path d="M38.619,11.654a.953.953,0,0,0,.171-.114l1.084-1.083A1,1,0,0,0,38.46,9.043l-1.084,1.083a.966.966,0,0,0-.155.233A20.39,20.39,0,0,0,25,5.551V3h1a1,1,0,0,0,2,0,2,2,0,0,0-2-2H22a2,2,0,0,0-2,2,1,1,0,0,0,2,0h1V5.551a20.5,20.5,0,1,0,15.619,6.1ZM24,44.5A18.5,18.5,0,1,1,42.5,26,18.521,18.521,0,0,1,24,44.5Z"/>
      <path d="M23.29,10.38a1.029,1.029,0,0,0,1.09.22,1.012,1.012,0,0,0,.33-.22.986.986,0,0,0,.21-.32A1.01,1.01,0,0,0,25,9.67a1.147,1.147,0,0,0-.021-.19.675.675,0,0,0-.06-.189.557.557,0,0,0-.09-.17.964.964,0,0,0-.12-.15,1.034,1.034,0,0,0-.16-.13c-.05-.03-.11-.06-.17-.09s-.12-.04-.19-.061A1,1,0,0,0,23,9.67a.846.846,0,0,0,.08.39A.986.986,0,0,0,23.29,10.38Z"/>
      <path d="M24.71,41.62a.922.922,0,0,0-.33-.221,1,1,0,0,0-.76,0,.913.913,0,0,0-.33.221,1.032,1.032,0,0,0-.221,1.09,1.245,1.245,0,0,0,.221.32.911.911,0,0,0,.33.22.989.989,0,0,0,1.3-.54,1.011,1.011,0,0,0,.08-.391,1,1,0,0,0-.08-.38A.981.981,0,0,0,24.71,41.62Z"/>
      <path d="M41.25,25.62a1.055,1.055,0,0,0-.22-.33,1.759,1.759,0,0,0-.15-.12.547.547,0,0,0-.17-.09.718.718,0,0,0-.19-.061,1.022,1.022,0,0,0-.9.271.988.988,0,0,0,0,1.42.981.981,0,0,0,.319.21,1.011,1.011,0,0,0,.391.08.988.988,0,0,0,.7-.29,1.012,1.012,0,0,0,.22-.33.941.941,0,0,0,0-.76Z"/>
      <path d="M8.38,25.29a1.012,1.012,0,0,0-1.41,0,.911.911,0,0,0-.22.33,1.029,1.029,0,0,0,.22,1.09.969.969,0,0,0,.7.29,1.01,1.01,0,0,0,.93-1.38A1.181,1.181,0,0,0,8.38,25.29Z"/>
      <path d="M36.25,13.75a1.024,1.024,0,0,0-1.41,0,.88.88,0,0,0-.22.319,1.035,1.035,0,0,0-.08.391.981.981,0,0,0,.08.38,1.061,1.061,0,0,0,.54.54.974.974,0,0,0,1.09-.22,1.023,1.023,0,0,0,.22-.32.99.99,0,0,0,.07-.38,1.044,1.044,0,0,0-.07-.391A1.019,1.019,0,0,0,36.25,13.75Z"/>
      <path d="M13.16,36.84a.958.958,0,0,0-.15-.13c-.05-.03-.11-.061-.17-.09s-.13-.04-.19-.061a1.3,1.3,0,0,0-.39,0c-.06.021-.13.04-.19.061s-.119.06-.17.09a.951.951,0,0,0-.149.13.966.966,0,0,0-.29.7.989.989,0,0,0,.29.71,1.019,1.019,0,0,0,.319.22,1.007,1.007,0,0,0,.391.07.99.99,0,0,0,.38-.07,1.023,1.023,0,0,0,.32-.22,1.029,1.029,0,0,0,.22-1.09A1.012,1.012,0,0,0,13.16,36.84Z"/>
      <path d="M36.1,36.71c-.06-.03-.109-.061-.17-.09s-.13-.04-.189-.061a1.019,1.019,0,0,0-1.2.98.993.993,0,0,0,.08.39.875.875,0,0,0,.22.32.952.952,0,0,0,.7.29.935.935,0,0,0,.71-.29.993.993,0,0,0,.29-.71.969.969,0,0,0-.29-.7A1.781,1.781,0,0,0,36.1,36.71Z"/>
      <path d="M13.16,13.75a.992.992,0,0,0-.9-.271,1.411,1.411,0,0,0-.19.051c-.06.029-.119.06-.17.09a.951.951,0,0,0-.149.13,1.019,1.019,0,0,0-.22.319,1.035,1.035,0,0,0-.08.391.981.981,0,0,0,.08.38,1.023,1.023,0,0,0,.22.32.979.979,0,0,0,1.41,0,.883.883,0,0,0,.22-.32,1,1,0,0,0,.08-.38,1.054,1.054,0,0,0-.08-.391A.88.88,0,0,0,13.16,13.75Z"/>
      <path d="M25,25.57V16a1,1,0,0,0-2,0V26a1,1,0,0,0,.312.726l9.069,8.6a1,1,0,1,0,1.377-1.451Z"/>
    </g>
  </g>
</svg>
