<svg xmlns="http://www.w3.org/2000/svg" viewBox="0 0 48 48">
  <title>time-3</title>
  <g id="time-3">
    <g>
      <path d="M24,1.5A22.5,22.5,0,1,0,46.5,24,22.526,22.526,0,0,0,24,1.5Zm0,43A20.5,20.5,0,1,1,44.5,24,20.523,20.523,0,0,1,24,44.5Z"/>
      <path d="M24,7a.99.99,0,0,0,1-1,1,1,0,1,0-2,0,.99.99,0,0,0,1,1Z"/>
      <path d="M23.62,41.08a1.152,1.152,0,0,0-.33.21,1.03,1.03,0,0,0-.21.33.991.991,0,0,0,.21,1.09,1.152,1.152,0,0,0,.33.21.942.942,0,0,0,.76,0,1.154,1.154,0,0,0,.33-.21,1.171,1.171,0,0,0,.21-.33A.838.838,0,0,0,25,42a1.052,1.052,0,0,0-.29-.71A1.017,1.017,0,0,0,23.62,41.08Z"/>
      <path d="M42.92,23.62a.9.9,0,0,0-.54-.54,1.035,1.035,0,0,0-1.09.21,1.149,1.149,0,0,0-.21.33.946.946,0,0,0,0,.76.9.9,0,0,0,.54.54.942.942,0,0,0,.76,0,1.154,1.154,0,0,0,.33-.21.989.989,0,0,0,.21-1.09Z"/>
      <path d="M6.71,23.29a1.154,1.154,0,0,0-.33-.21,1.035,1.035,0,0,0-1.09.21,1.149,1.149,0,0,0-.21.33.946.946,0,0,0,0,.76,1.162,1.162,0,0,0,.21.33,1.152,1.152,0,0,0,.33.21.942.942,0,0,0,.76,0,1.154,1.154,0,0,0,.33-.21.989.989,0,0,0,.21-1.09A1.158,1.158,0,0,0,6.71,23.29Z"/>
      <path d="M36.53,10.29a.62.62,0,0,0-.18.06.782.782,0,0,0-.18.09l-.15.12a1.006,1.006,0,0,0-.29.71,1.079,1.079,0,0,0,.07.391,1,1,0,0,0,.22.319,1.033,1.033,0,0,0,1.09.221,1.213,1.213,0,0,0,.33-.221,1.032,1.032,0,0,0,.29-.71,1.054,1.054,0,0,0-.29-.71A1.018,1.018,0,0,0,36.53,10.29Z"/>
      <path d="M11.08,35.75a1.079,1.079,0,0,0-.19.05.97.97,0,0,0-.17.1.448.448,0,0,0-.15.12.979.979,0,0,0,0,1.41.866.866,0,0,0,.32.22.982.982,0,0,0,.38.08,1,1,0,0,0,.71-.3.982.982,0,0,0,.29-.7.99.99,0,0,0-1.19-.979Z"/>
      <path d="M37.11,35.8a1,1,0,0,0-.76,0,.952.952,0,0,0-.33.22,1.031,1.031,0,0,0-.22,1.09,1,1,0,0,0,1.64.32,1,1,0,0,0,0-1.41A1.188,1.188,0,0,0,37.11,35.8Z"/>
      <path d="M11.83,10.439a.763.763,0,0,0-.18-.09.62.62,0,0,0-.18-.06,1.017,1.017,0,0,0-.91.27,1.052,1.052,0,0,0-.29.71,1.03,1.03,0,0,0,.29.71,1.211,1.211,0,0,0,.33.221,1,1,0,0,0,1.38-.931,1.008,1.008,0,0,0-.29-.71Z"/>
      <path d="M25,23.586V14a1,1,0,0,0-2,0V24a1,1,0,0,0,.293.707l10,10a1,1,0,0,0,1.414-1.414Z"/>
    </g>
  </g>
</svg>
