<svg xmlns="http://www.w3.org/2000/svg" viewBox="0 0 48 48">
  <title>trash-box</title>
  <g id="trash-box">
    <g>
      <path d="M45,2H3A1,1,0,0,0,2,3v9a1,1,0,0,0,1,1H5.029l.853,28.151a4.978,4.978,0,0,0,5,4.849H37.119a4.978,4.978,0,0,0,5-4.849L42.971,13H45a1,1,0,0,0,1-1V3A1,1,0,0,0,45,2ZM40.117,41.091a2.986,2.986,0,0,1-3,2.909H10.881a2.986,2.986,0,0,1-3-2.909L7.031,13H40.969ZM44,11H4V4H44Z"/>
      <path d="M16.5,22h15a3.5,3.5,0,0,0,0-7h-15a3.5,3.5,0,0,0,0,7Zm0-5h15a1.5,1.5,0,0,1,0,3h-15a1.5,1.5,0,0,1,0-3Z"/>
    </g>
  </g>
</svg>
