<svg xmlns="http://www.w3.org/2000/svg" viewBox="0 0 48 48">
  <title>lock-user</title>
  <g id="lock-user">
    <g>
      <path d="M30.886,29.554a1,1,0,0,0-.427-1.348,6.231,6.231,0,0,1-1.678-1.185,18.317,18.317,0,0,0,4.29-6.579l.158-.1a1.914,1.914,0,0,0,.752-.647c1.326-2.346,1.676-4.224,1.042-5.581a2.852,2.852,0,0,0-1.167-1.276A19.692,19.692,0,0,0,33.284,8c-.019-.07-1.995-7.036-10.5-7.036S12.3,7.932,12.281,8.006a19.7,19.7,0,0,0-.571,4.833,2.853,2.853,0,0,0-1.167,1.277c-.635,1.357-.284,3.235,1.042,5.582a1.919,1.919,0,0,0,.751.646l.159.1a18.346,18.346,0,0,0,4.2,6.5,15.873,15.873,0,0,1-5.045,2.6C7.02,31,.808,34.1.333,44.072A1,1,0,0,0,1.15,45.1,139.327,139.327,0,0,0,23.3,47.037c.9,0,1.813-.012,2.724-.038a1,1,0,0,0-.056-2A134.649,134.649,0,0,1,2.39,43.285c.688-7.881,5.35-10.413,9.863-11.837a17.292,17.292,0,0,0,6.011-3.209,7.894,7.894,0,0,0,4.519,1.54,7.857,7.857,0,0,0,4.445-1.492,7.881,7.881,0,0,0,2.31,1.694,1,1,0,0,0,1.348-.427ZM14.322,19.588c-.125-.443-.463-.653-.93-.943l-.159-.1c-1.226-2.233-1.033-3.23-.889-3.56a.906.906,0,0,1,.562-.5,1,1,0,0,0,.817-1.038,18.383,18.383,0,0,1,.489-4.918c.063-.227,1.633-5.561,8.571-5.561S31.291,8.3,31.352,8.518a18.376,18.376,0,0,1,.491,4.927,1.031,1.031,0,0,0,.794,1.033.9.9,0,0,1,.585.509c.144.33.336,1.327-.889,3.56l-.16.1c-.465.29-.8.5-.928.938-.5,1.735-3.886,8.195-8.462,8.195S14.821,21.319,14.322,19.588Z"/>
      <path d="M43.428,37.1a.988.988,0,0,0,.072-.355,6.5,6.5,0,0,0-13,0,.988.988,0,0,0,.072.355A.994.994,0,0,0,30,38v6a3,3,0,0,0,3,3h8a3,3,0,0,0,3-3V38A.994.994,0,0,0,43.428,37.1ZM37,32.25a4.5,4.5,0,0,1,4.5,4.5.964.964,0,0,0,.05.25h-9.1a.964.964,0,0,0,.05-.25A4.5,4.5,0,0,1,37,32.25ZM42,44a1,1,0,0,1-1,1H33a1,1,0,0,1-1-1V39H42Z"/>
    </g>
  </g>
</svg>
