<svg xmlns="http://www.w3.org/2000/svg" viewBox="0 0 48 48">
  <title>user</title>
  <g id="user">
    <path d="M34.318,29.168a15.162,15.162,0,0,1-4.766-2.448,17.6,17.6,0,0,0,3.982-6.175l.138-.085a1.866,1.866,0,0,0,.734-.634c1.274-2.255,1.61-4.063,1-5.375a2.763,2.763,0,0,0-1.111-1.226,18.864,18.864,0,0,0-.548-4.61c-.019-.067-1.915-6.756-10.078-6.756S13.607,8.548,13.588,8.62a18.876,18.876,0,0,0-.547,4.605,2.769,2.769,0,0,0-1.112,1.226c-.613,1.311-.277,3.119,1,5.375a1.86,1.86,0,0,0,.733.633l.138.085a17.59,17.59,0,0,0,3.984,6.177,15.039,15.039,0,0,1-4.767,2.446c-4.439,1.4-10.393,4.368-10.848,13.926a1,1,0,0,0,.789,1.025,109.731,109.731,0,0,0,20.71,1.854,109.725,109.725,0,0,0,20.71-1.854,1,1,0,0,0,.789-1.025C44.71,33.536,38.757,30.568,34.318,29.168Zm-18.7-9.486c-.126-.437-.471-.651-.907-.921l-.143-.088c-1.154-2.107-.977-3.042-.842-3.351a.822.822,0,0,1,.5-.458,1,1,0,0,0,.817-1.038,17.418,17.418,0,0,1,.467-4.689c.015-.053,1.5-5.277,8.146-5.277,6.6,0,8.087,5.065,8.145,5.272a17.522,17.522,0,0,1,.469,4.694,1.033,1.033,0,0,0,.793,1.033.817.817,0,0,1,.529.463c.134.309.312,1.244-.843,3.351l-.143.088c-.436.271-.78.485-.907.922-.476,1.651-3.7,7.8-8.044,7.8S16.1,21.335,15.623,19.682Zm8.044,24.291A112.156,112.156,0,0,1,4.224,42.328c.662-7.49,5.1-9.9,9.394-11.253a16.635,16.635,0,0,0,5.734-3.053,7.572,7.572,0,0,0,4.315,1.461,7.571,7.571,0,0,0,4.315-1.461,16.624,16.624,0,0,0,5.735,3.054c4.295,1.355,8.731,3.763,9.393,11.253A112.006,112.006,0,0,1,23.667,43.973Z"/>
  </g>
</svg>
