<svg xmlns="http://www.w3.org/2000/svg" viewBox="0 0 48 48">
  <title>remove-user</title>
  <g id="add-user-2" data-name="add-user">
    <g>
      <path d="M37,29a9,9,0,1,0,9,9A9.01,9.01,0,0,0,37,29Zm0,16a7,7,0,1,1,7-7A7.008,7.008,0,0,1,37,45Z"/>
      <path d="M40,37H38V35a1,1,0,0,0-2,0v2H34a1,1,0,0,0,0,2h2v2a1,1,0,0,0,2,0V39h2a1,1,0,0,0,0-2Z"/>
      <path d="M26.758,44.283a146.823,146.823,0,0,1-24-1.68c.671-7.613,5.178-10.06,9.542-11.437a16.844,16.844,0,0,0,5.823-3.1,7.674,7.674,0,0,0,4.38,1.486,7.675,7.675,0,0,0,4.379-1.485A14.528,14.528,0,0,0,29.106,29.6a1,1,0,0,0,.991-1.737,13.252,13.252,0,0,1-1.644-1.1,17.822,17.822,0,0,0,4.053-6.279l.144-.088a1.879,1.879,0,0,0,.741-.639c1.291-2.284,1.63-4.114,1.011-5.439a2.791,2.791,0,0,0-1.129-1.242,19.138,19.138,0,0,0-.556-4.682c-.018-.068-1.94-6.845-10.211-6.845S12.313,8.326,12.293,8.4a19.155,19.155,0,0,0-.555,4.678,2.794,2.794,0,0,0-1.129,1.242c-.62,1.325-.279,3.155,1.011,5.438a1.874,1.874,0,0,0,.742.641l.143.088a17.827,17.827,0,0,0,4.053,6.279,15.267,15.267,0,0,1-4.856,2.5C7.2,30.679,1.166,33.688.7,43.377A1,1,0,0,0,1.5,44.4c.366.077,9.156,1.879,25.26,1.879a1,1,0,0,0,0-2ZM14.329,19.621c-.127-.436-.456-.64-.911-.922l-.149-.093c-1.178-2.147-.995-3.1-.858-3.417a.849.849,0,0,1,.522-.473,1,1,0,0,0,.818-1.038,17.668,17.668,0,0,1,.474-4.759c.062-.219,1.578-5.37,8.281-5.37S30.726,8.7,30.785,8.91a17.787,17.787,0,0,1,.476,4.768,1,1,0,0,0,.818,1.038.85.85,0,0,1,.512.45c.146.312.347,1.263-.847,3.44l-.149.092c-.457.284-.786.488-.913.927-.483,1.678-3.755,7.924-8.176,7.924S14.813,21.3,14.329,19.621Z"/>
    </g>
  </g>
</svg>
