<svg xmlns="http://www.w3.org/2000/svg" viewBox="0 0 48 48">
  <title>male-group</title>
  <g id="group-m">
    <path d="M41.2,24.957a23.23,23.23,0,0,1-3.7-1.847,13.237,13.237,0,0,0,3.226-4.592,2.063,2.063,0,0,0,.738-.777,4.562,4.562,0,0,0,.607-3.693A2.71,2.71,0,0,0,41.3,12.91a14.555,14.555,0,0,0-.423-3.531c-.493-1.83-2.769-5.291-7.855-5.291a7.618,7.618,0,0,0-7.591,5.149,10.1,10.1,0,0,0-1.765-.151,10.212,10.212,0,0,0-1.288.088,7.893,7.893,0,0,0-7.712-5.086c-5.086,0-7.362,3.461-7.856,5.295a14.526,14.526,0,0,0-.422,3.527,2.71,2.71,0,0,0-.771,1.138,4.559,4.559,0,0,0,.606,3.693,2.1,2.1,0,0,0,.74.779,15.4,15.4,0,0,0,3.287,4.625,27.017,27.017,0,0,1-3.765,1.812c-5.462,2.068-5.395,6.557-5.346,9.833a3.229,3.229,0,0,0,3,3.21h4.55a22.467,22.467,0,0,0-.464,3.547,3.453,3.453,0,0,0,.934,2.521A2.83,2.83,0,0,0,11.222,45H36.976a2.854,2.854,0,0,0,2.08-.944,3.368,3.368,0,0,0,.917-2.46A22.647,22.647,0,0,0,39.49,38h4.058a3.229,3.229,0,0,0,3-3.21C46.6,31.514,46.665,27.025,41.2,24.957ZM29.589,14.891a13.007,13.007,0,0,1,.347,3.475,1,1,0,0,0,.712,1.012.564.564,0,0,1,.167.219c.086.2.21.822-.5,2.214-.012.022-.013.025-.113.089a1.418,1.418,0,0,0-.686.841c-.349,1.211-2.7,5.72-5.848,5.72s-5.5-4.509-5.847-5.72a.948.948,0,0,0-.037-.106,1.806,1.806,0,0,0-.8-.858,2.942,2.942,0,0,1-.493-2.034.722.722,0,0,1,.285-.395h0a1,1,0,0,0,.622-.981,12.869,12.869,0,0,1,.344-3.463c.044-.156,1.136-3.815,5.925-3.815S29.548,14.745,29.589,14.891ZM4.142,36c-.478,0-.992-.637-1-1.239-.058-3.844.193-6.472,4.053-7.933a30.2,30.2,0,0,0,5.359-2.744,1,1,0,0,0-.031-1.686,12.281,12.281,0,0,1-3.7-4.628.948.948,0,0,0-.037-.106,1.742,1.742,0,0,0-.708-.809.451.451,0,0,1-.09-.065,2.945,2.945,0,0,1-.492-2.038.737.737,0,0,1,.288-.4,1,1,0,0,0,.619-.979A13.019,13.019,0,0,1,8.741,9.9c.044-.155,1.136-3.816,5.925-3.816A5.856,5.856,0,0,1,20.409,9.64a7.455,7.455,0,0,0-4.6,4.739,14.509,14.509,0,0,0-.422,3.521,2.707,2.707,0,0,0-.77,1.132,4.553,4.553,0,0,0,.605,3.693,2.059,2.059,0,0,0,.739.771,14.308,14.308,0,0,0,2.889,4.636,13.46,13.46,0,0,1-3.366,1.825A10.112,10.112,0,0,0,9.288,36ZM37.6,42.686a.911.911,0,0,1-.624.314H11.222a.886.886,0,0,1-.605-.3,1.464,1.464,0,0,1-.393-1.033c.319-5.431,2.1-8.373,5.971-9.836a14.967,14.967,0,0,0,4.23-2.389,5.9,5.9,0,0,0,3.242,1.02,6.1,6.1,0,0,0,3.717-1.35c.011.011.015.025.027.035a16.318,16.318,0,0,0,4.6,2.559,8.175,8.175,0,0,1,5.031,5.108A.953.953,0,0,0,37,37a.987.987,0,0,0,.34.739,18.758,18.758,0,0,1,.638,3.978A1.355,1.355,0,0,1,37.6,42.686Zm6.949-7.925c-.009.6-.523,1.239-1,1.239H38.9a10.2,10.2,0,0,0-6.181-6.168,15.142,15.142,0,0,1-3.872-2.1,14.577,14.577,0,0,0,2.513-4.2,2.084,2.084,0,0,0,.739-.812c.807-1.577,1-2.893.562-3.911a2.488,2.488,0,0,0-.71-.948,14.469,14.469,0,0,0-.423-3.487,7.418,7.418,0,0,0-4.17-4.556,5.587,5.587,0,0,1,5.672-3.731c4.79,0,5.881,3.661,5.923,3.807a13.033,13.033,0,0,1,.347,3.479,1.064,1.064,0,0,0,.587.965.7.7,0,0,1,.319.414,2.955,2.955,0,0,1-.493,2.041.554.554,0,0,1-.09.063,1.749,1.749,0,0,0-.708.809.948.948,0,0,0-.037.106c-.2.691-1.9,3.674-3.6,4.444a1,1,0,0,0-.169,1.723,26.568,26.568,0,0,0,5.39,2.891C44.355,28.289,44.606,30.917,44.549,34.761Z"/>
  </g>
</svg>
