<svg xmlns="http://www.w3.org/2000/svg" viewBox="0 0 48 48">
  <title>settings-user</title>
  <g id="settings">
    <g>
      <path d="M22.981,45.3A90.3,90.3,0,0,1,2.358,43.572c.679-8.028,5.412-10.6,9.993-12.047a17.475,17.475,0,0,0,6.085-3.25,7.981,7.981,0,0,0,4.573,1.561,7.973,7.973,0,0,0,4.559-1.551A17.549,17.549,0,0,0,31.433,29.8a1,1,0,1,0,.6-1.907c-1.506-.475-2.34-.795-2.8-1a18.564,18.564,0,0,0,4.177-6.505l.163-.1a1.92,1.92,0,0,0,.758-.651c1.339-2.371,1.694-4.267,1.054-5.636a2.873,2.873,0,0,0-1.182-1.29,19.925,19.925,0,0,0-.579-4.9C33.6,7.745,31.606.706,23.009.706S12.415,7.745,12.395,7.82a19.915,19.915,0,0,0-.577,4.895A2.873,2.873,0,0,0,10.635,14c-.64,1.37-.286,3.266,1.052,5.633a1.928,1.928,0,0,0,.759.654l.163.1a18.54,18.54,0,0,0,4.258,6.581,16.073,16.073,0,0,1-5.119,2.644C7.066,31.1.786,34.226.305,44.31a1,1,0,0,0,.752,1.017A84.954,84.954,0,0,0,20.3,47.333q1.337,0,2.739-.039c1.55-.043,6.192-.189,6.192-.189l-.062-2S24.529,45.252,22.981,45.3ZM14.437,19.537c-.127-.442-.465-.652-.934-.944l-.165-.1c-1.245-2.266-1.048-3.28-.9-3.615a.927.927,0,0,1,.576-.517,1,1,0,0,0,.818-1.039,18.481,18.481,0,0,1,.5-4.979c.064-.23,1.654-5.635,8.684-5.635s8.619,5.405,8.681,5.626a18.614,18.614,0,0,1,.5,4.989,1,1,0,0,0,.818,1.038.938.938,0,0,1,.565.493c.155.332.371,1.341-.891,3.64l-.165.1c-.468.291-.807.5-.933.942-.506,1.757-3.937,8.3-8.573,8.3S14.942,21.293,14.437,19.537Z"/>
      <path d="M45.9,39.617l-2.259-1.791,2.154-1.915a1,1,0,0,0,.193-1.263l-1.545-2.571a1,1,0,0,0-1.205-.422l-2.887,1.073-.356-2.853A1,1,0,0,0,39,29H36a1,1,0,0,0-.992.876l-.388,3.1-3.2-.989a1,1,0,0,0-1.18.49l-1.4,2.654a1,1,0,0,0,.264,1.25l2.259,1.791-2.154,1.915a1,1,0,0,0-.193,1.263l1.545,2.571a1,1,0,0,0,1.205.422l2.887-1.073.356,2.853A1,1,0,0,0,36,47h3a1,1,0,0,0,.992-.876l.388-3.1,3.2.989a1,1,0,0,0,1.18-.49l1.4-2.654A1,1,0,0,0,45.9,39.617Zm-2.517,2.238L40.97,41.11A2,2,0,0,0,38.4,42.773L38.117,45H36.883l-.247-1.977A2,2,0,0,0,33.955,41.4l-2.109.784-.69-1.148,1.534-1.363a2,2,0,0,0-.086-3.062l-1.609-1.275.625-1.186,2.411.745A2,2,0,0,0,36.6,33.227L36.883,31h1.234l.247,1.977A2,2,0,0,0,41.045,34.6l2.109-.784.69,1.148-1.534,1.363a2,2,0,0,0,.086,3.063l1.609,1.275Z"/>
    </g>
  </g>
</svg>
