<svg xmlns="http://www.w3.org/2000/svg" viewBox="0 0 48 48">
  <title>grid-block</title>
  <g id="grid-block">
    <g>
      <path d="M44,1H4A3,3,0,0,0,1,4V44a3,3,0,0,0,3,3H44a3,3,0,0,0,3-3V4A3,3,0,0,0,44,1ZM4,3H44a1,1,0,0,1,1,1V9H3V4A1,1,0,0,1,4,3ZM44,45H4a1,1,0,0,1-1-1V11H45V44A1,1,0,0,1,44,45Z"/>
      <path d="M6,7.5A1.5,1.5,0,1,0,4.5,6,1.5,1.5,0,0,0,6,7.5Zm0-2a.5.5,0,1,1-.5.5A.5.5,0,0,1,6,5.5Z"/>
      <path d="M10,7.5A1.5,1.5,0,1,0,8.5,6,1.5,1.5,0,0,0,10,7.5Zm0-2a.5.5,0,1,1-.5.5A.5.5,0,0,1,10,5.5Z"/>
      <path d="M14,7.5A1.5,1.5,0,1,0,12.5,6,1.5,1.5,0,0,0,14,7.5Zm0-2a.5.5,0,1,1-.5.5A.5.5,0,0,1,14,5.5Z"/>
      <path d="M15,13H6a1,1,0,0,0-1,1V26a1,1,0,0,0,1,1h9a1,1,0,0,0,1-1V14A1,1,0,0,0,15,13ZM14,25H7V15h7Z"/>
      <path d="M15,29H6a1,1,0,0,0-1,1V42a1,1,0,0,0,1,1h9a1,1,0,0,0,1-1V30A1,1,0,0,0,15,29ZM14,41H7V31h7Z"/>
      <path d="M28,13H19a1,1,0,0,0-1,1V26a1,1,0,0,0,1,1h9a1,1,0,0,0,1-1V14A1,1,0,0,0,28,13ZM27,25H20V15h7Z"/>
      <path d="M28,29H19a1,1,0,0,0-1,1V42a1,1,0,0,0,1,1h9a1,1,0,0,0,1-1V30A1,1,0,0,0,28,29ZM27,41H20V31h7Z"/>
      <path d="M41,13H32a1,1,0,0,0-1,1V26a1,1,0,0,0,1,1h9a1,1,0,0,0,1-1V14A1,1,0,0,0,41,13ZM40,25H33V15h7Z"/>
      <path d="M41,29H32a1,1,0,0,0-1,1V42a1,1,0,0,0,1,1h9a1,1,0,0,0,1-1V30A1,1,0,0,0,41,29ZM40,41H33V31h7Z"/>
    </g>
  </g>
</svg>
