<?xml version="1.0" standalone="no"?>
<svg xmlns="http://www.w3.org/2000/svg" xmlns:xlink="http://www.w3.org/1999/xlink" viewBox="0 0 45 75" width="45" height="75">
    <defs>
        <symbol id="logo">
            <path d="M35.3,6.39v0a10.21,10.21,0,0,0-1.56-.13h-.48a1.28,1.28,0,0,0-1,.61,1.26,1.26,0,0,0,.13,1.28,3.83,3.83,0,0,0,.74.66A7.65,7.65,0,0,1,36.5,14.6a.68.68,0,0,1-.61.74h-.06a.68.68,0,0,1-.67-.61,6.28,6.28,0,0,0-2.86-4.81,4.1,4.1,0,0,1-1.08-1.05,3,3,0,0,1-.43-1.56,5.73,5.73,0,0,0-4.15-1,.68.68,0,0,1-.09-1.35A7.44,7.44,0,0,1,31.25,6a2.7,2.7,0,0,1,1.11-.84A7.75,7.75,0,0,0,19.92,2.75a7.84,7.84,0,0,1,2.17,3.62.68.68,0,0,1-.46.84.65.65,0,0,1-.19,0,.68.68,0,0,1-.65-.49,6.09,6.09,0,0,0-2.18-3.33l-.06,0a7.75,7.75,0,0,0-12,6.49c0,.06,0,.13,0,.19v0a6.84,6.84,0,0,0,.66,2.29A.68.68,0,1,1,6,13a8.35,8.35,0,0,1-.68-2A6.92,6.92,0,0,0,7.17,24.5H9.79A7.07,7.07,0,0,1,11,18.71a7.58,7.58,0,0,1,5.32-2.63A4,4,0,0,0,18.2,12.7a.68.68,0,0,1,1.34-.23,5,5,0,0,1-1.1,3.47c3.41-.29,5.74-1.73,6.76-4.19A4.17,4.17,0,0,1,23.95,10a.68.68,0,0,1,1.28-.44c0,.11.91,2.44,4.15,1.87a.68.68,0,0,1,.23,1.34,7,7,0,0,1-1.2.11,5.18,5.18,0,0,1-2.05-.4C25,15.54,22,17.23,17.6,17.35c-2.58.07-4.45.81-5.55,2.2a5.85,5.85,0,0,0-.9,4.95H14.9l.07-.12a7.15,7.15,0,0,1,4.48-2.48c4.22-.95,5.31-3.36,5.49-3.84a.68.68,0,0,1,1.27.47,7.23,7.23,0,0,1-3.57,3.66s-1.28.58-1.29.57a12.83,12.83,0,0,1-1.6.47,7.54,7.54,0,0,0-3,1.28H35.54a8.89,8.89,0,0,0,4.2-1.05A5.17,5.17,0,0,0,38,21.78a7.32,7.32,0,0,0-4.63-.93,4.79,4.79,0,0,1-.24,1.32.68.68,0,0,1-.65.47.72.72,0,0,1-.21,0,.67.67,0,0,1-.44-.85,2.34,2.34,0,0,0-1-3,.67.67,0,0,1-.37-.88.68.68,0,0,1,.89-.37,3.58,3.58,0,0,1,1.78,2,8.66,8.66,0,0,1,5.54,1.11l.26.17c1.64-2.63.37-6,.36-6a.68.68,0,0,1,1.26-.5c.07.17,1.59,4.15-.57,7.39a6.25,6.25,0,0,1,.83,1.06,9,9,0,0,0,3.62-7.18C44.5,10.36,39.82,7,35.3,6.39ZM17.06,7.78a4.38,4.38,0,0,1-2.51.76h-.27C13.94,14,10,17,7.71,17.59a2.32,2.32,0,0,0-.22,1.29,2.38,2.38,0,0,1-1.84,2.63l-.14,0a.68.68,0,0,1-.14-1.34,1.07,1.07,0,0,0,.77-1.25,4.62,4.62,0,0,1,.1-1.23,4.56,4.56,0,0,1-2.62-1,.68.68,0,0,1,.91-1,3.34,3.34,0,0,0,2.7.62,6.69,6.69,0,0,0,3.55-2.36,9.34,9.34,0,0,0,2.16-5.72,5.56,5.56,0,0,1-2.1-1.48.68.68,0,0,1,1-.92c2.18,2.38,4.36.9,4.38.88a.67.67,0,0,1,.95.11A.68.68,0,0,1,17.06,7.78Z"/>
        </symbol>
    </defs>

    <view id="black" viewBox="0 0 45 25"/>
    <view id="cyan" viewBox="0 25 45 25"/>
    <view id="white" viewBox="0 50 45 25"/>

    <use xlink:href="#logo" x="0" y="0" fill="#000000"/>
    <use xlink:href="#logo" x="0" y="25" fill="#009fe3"/>
    <use xlink:href="#logo" x="0" y="50" fill="#ffffff"/>
</svg>
